<svg width="1600" height="1080" viewBox="0 0 1600 1080" fill="none" xmlns="http://www.w3.org/2000/svg">
<g filter="url(#filter0_f_87_6203)">
<circle cx="118.5" cy="38.5" r="165.5" fill="#936AFF"/>
</g>
<g filter="url(#filter1_f_87_6203)">
<circle cx="1544.5" cy="984.5" r="165.5" fill="#FFB471"/>
</g>
<path d="M1988.46 -8.38602C1629.08 503.043 1501.94 -98.4897 962.461 397.609C399.758 915.067 -658.644 3750.09 289.661 2794.03C794.598 2284.96 1045.67 2318.27 1085.52 2671.03" stroke="url(#paint0_linear_87_6203)" stroke-opacity="0.5"/>
<path d="M1965.95 -18.0137C1606.57 493.415 1479.43 -108.117 939.95 387.982C377.248 905.439 -681.155 3740.46 267.151 2784.4C772.087 2275.33 1023.16 2308.64 1063.01 2661.4" stroke="url(#paint1_linear_87_6203)" stroke-opacity="0.5"/>
<path d="M1943.43 -27.642C1584.06 483.787 1456.91 -117.746 917.438 378.353C354.736 895.811 -703.666 3730.83 244.639 2774.77C749.575 2265.71 1000.65 2299.01 1040.5 2651.77" stroke="url(#paint2_linear_87_6203)" stroke-opacity="0.5"/>
<path d="M1920.92 -37.2696C1561.55 474.159 1434.4 -127.373 894.928 368.726C332.226 886.183 -726.176 3721.2 222.129 2765.14C727.065 2256.08 978.137 2289.38 1017.99 2642.15" stroke="url(#paint3_linear_87_6203)" stroke-opacity="0.5"/>
<path d="M1898.41 -46.8973C1539.04 464.531 1411.89 -137.001 872.418 359.098C309.716 876.556 -748.687 3711.57 199.618 2755.51C704.555 2246.45 955.627 2279.75 995.481 2632.52" stroke="url(#paint4_linear_87_6203)" stroke-opacity="0.5"/>
<path d="M1875.9 -56.5249C1516.53 454.904 1389.38 -146.629 849.908 349.47C287.205 866.928 -771.197 3701.95 177.108 2745.89C682.045 2236.82 933.116 2270.13 972.97 2622.89" stroke="url(#paint5_linear_87_6203)" stroke-opacity="0.5"/>
<path d="M1853.39 -66.1527C1494.02 445.276 1366.87 -156.256 827.397 339.843C264.695 857.3 -793.708 3692.32 154.598 2736.26C659.534 2227.19 910.606 2260.5 950.46 2613.26" stroke="url(#paint6_linear_87_6203)" stroke-opacity="0.5"/>
<path d="M1830.88 -75.7808C1471.51 435.648 1344.36 -165.884 804.886 330.214C242.183 847.672 -816.219 3682.69 132.086 2726.63C637.023 2217.57 888.094 2250.87 927.948 2603.63" stroke="url(#paint7_linear_87_6203)" stroke-opacity="0.5"/>
<path d="M1808.37 -85.4085C1449 426.02 1321.85 -175.512 782.375 320.587C219.673 838.044 -838.729 3673.06 109.576 2717C614.512 2207.94 865.584 2241.24 905.438 2594.01" stroke="url(#paint8_linear_87_6203)" stroke-opacity="0.5"/>
<path d="M1785.86 -95.0363C1426.49 416.392 1299.34 -185.14 759.865 310.959C197.162 828.417 -861.24 3663.44 87.0651 2707.38C592.001 2198.31 843.073 2231.62 882.927 2584.38" stroke="url(#paint9_linear_87_6203)" stroke-opacity="0.5"/>
<path d="M1763.35 -104.664C1403.98 406.764 1276.83 -194.768 737.354 301.331C174.651 818.789 -883.751 3653.81 64.5542 2697.75C569.491 2188.68 820.562 2221.99 860.416 2574.75" stroke="url(#paint10_linear_87_6203)" stroke-opacity="0.5"/>
<path d="M1740.84 -114.292C1381.47 397.137 1254.32 -204.395 714.844 291.703C152.141 809.161 -906.261 3644.18 42.0441 2688.12C546.98 2179.06 798.052 2212.36 837.906 2565.12" stroke="url(#paint11_linear_87_6203)" stroke-opacity="0.5"/>
<path d="M1718.33 -123.92C1358.95 387.509 1231.81 -214.023 692.333 282.076C129.63 799.533 -928.772 3634.55 19.5333 2678.49C524.47 2169.43 775.542 2202.73 815.395 2555.5" stroke="url(#paint12_linear_87_6203)" stroke-opacity="0.5"/>
<path d="M1695.82 -133.548C1336.44 377.881 1209.3 -223.651 669.821 272.447C107.119 789.905 -951.284 3624.92 -2.97844 2668.86C501.958 2159.8 753.03 2193.1 792.884 2545.87" stroke="url(#paint13_linear_87_6203)" stroke-opacity="0.5"/>
<path d="M1673.31 -143.175C1313.93 368.253 1186.79 -233.279 647.311 262.82C84.6091 780.278 -973.793 3615.3 -25.488 2659.24C479.448 2150.17 730.52 2183.48 770.374 2536.24" stroke="url(#paint14_linear_87_6203)" stroke-opacity="0.5"/>
<path d="M1650.8 -152.803C1291.42 358.626 1164.28 -242.906 624.801 253.193C62.0991 770.65 -996.303 3605.67 -47.998 2649.61C456.938 2140.54 708.01 2173.85 747.864 2526.61" stroke="url(#paint15_linear_87_6203)" stroke-opacity="0.5"/>
<path d="M1628.29 -162.431C1268.91 348.998 1141.77 -252.534 602.29 243.564C39.5878 761.022 -1018.81 3596.04 -70.5093 2639.98C434.427 2130.92 685.499 2164.22 725.353 2516.99" stroke="url(#paint16_linear_87_6203)" stroke-opacity="0.5"/>
<path d="M1605.77 -172.059C1246.4 339.37 1119.26 -262.162 579.779 233.936C17.0767 751.394 -1041.33 3586.41 -93.0204 2630.35C411.916 2121.29 662.988 2154.59 702.842 2507.36" stroke="url(#paint17_linear_87_6203)" stroke-opacity="0.5"/>
<path d="M1583.26 -181.687C1223.89 329.742 1096.74 -271.79 557.268 224.308C-5.43452 741.766 -1063.84 3576.78 -115.532 2620.73C389.405 2111.66 640.477 2144.96 680.33 2497.73" stroke="url(#paint18_linear_87_6203)" stroke-opacity="0.5"/>
<path d="M1560.75 -191.314C1201.38 320.114 1074.23 -281.418 534.758 214.681C-27.9442 732.139 -1086.35 3567.16 -138.041 2611.1C366.895 2102.03 617.967 2135.34 657.821 2488.1" stroke="url(#paint19_linear_87_6203)" stroke-opacity="0.5"/>
<defs>
<filter id="filter0_f_87_6203" x="-297" y="-377" width="831" height="831" filterUnits="userSpaceOnUse" color-interpolation-filters="sRGB">
<feFlood flood-opacity="0" result="BackgroundImageFix"/>
<feBlend mode="normal" in="SourceGraphic" in2="BackgroundImageFix" result="shape"/>
<feGaussianBlur stdDeviation="125" result="effect1_foregroundBlur_87_6203"/>
</filter>
<filter id="filter1_f_87_6203" x="1129" y="569" width="831" height="831" filterUnits="userSpaceOnUse" color-interpolation-filters="sRGB">
<feFlood flood-opacity="0" result="BackgroundImageFix"/>
<feBlend mode="normal" in="SourceGraphic" in2="BackgroundImageFix" result="shape"/>
<feGaussianBlur stdDeviation="125" result="effect1_foregroundBlur_87_6203"/>
</filter>
<linearGradient id="paint0_linear_87_6203" x1="424.423" y1="1235.19" x2="1515.28" y2="1701.75" gradientUnits="userSpaceOnUse">
<stop stop-color="#936AFF"/>
<stop offset="1" stop-color="#FFB471"/>
</linearGradient>
<linearGradient id="paint1_linear_87_6203" x1="401.913" y1="1225.56" x2="1492.76" y2="1692.12" gradientUnits="userSpaceOnUse">
<stop stop-color="#936AFF"/>
<stop offset="1" stop-color="#FFB471"/>
</linearGradient>
<linearGradient id="paint2_linear_87_6203" x1="379.401" y1="1215.94" x2="1470.25" y2="1682.49" gradientUnits="userSpaceOnUse">
<stop stop-color="#936AFF"/>
<stop offset="1" stop-color="#FFB471"/>
</linearGradient>
<linearGradient id="paint3_linear_87_6203" x1="356.891" y1="1206.31" x2="1447.74" y2="1672.87" gradientUnits="userSpaceOnUse">
<stop stop-color="#936AFF"/>
<stop offset="1" stop-color="#FFB471"/>
</linearGradient>
<linearGradient id="paint4_linear_87_6203" x1="334.381" y1="1196.68" x2="1425.23" y2="1663.24" gradientUnits="userSpaceOnUse">
<stop stop-color="#936AFF"/>
<stop offset="1" stop-color="#FFB471"/>
</linearGradient>
<linearGradient id="paint5_linear_87_6203" x1="311.87" y1="1187.05" x2="1402.72" y2="1653.61" gradientUnits="userSpaceOnUse">
<stop stop-color="#936AFF"/>
<stop offset="1" stop-color="#FFB471"/>
</linearGradient>
<linearGradient id="paint6_linear_87_6203" x1="289.36" y1="1177.43" x2="1380.21" y2="1643.98" gradientUnits="userSpaceOnUse">
<stop stop-color="#936AFF"/>
<stop offset="1" stop-color="#FFB471"/>
</linearGradient>
<linearGradient id="paint7_linear_87_6203" x1="266.848" y1="1167.8" x2="1357.7" y2="1634.35" gradientUnits="userSpaceOnUse">
<stop stop-color="#936AFF"/>
<stop offset="1" stop-color="#FFB471"/>
</linearGradient>
<linearGradient id="paint8_linear_87_6203" x1="244.338" y1="1158.17" x2="1335.19" y2="1624.73" gradientUnits="userSpaceOnUse">
<stop stop-color="#936AFF"/>
<stop offset="1" stop-color="#FFB471"/>
</linearGradient>
<linearGradient id="paint9_linear_87_6203" x1="221.827" y1="1148.54" x2="1312.68" y2="1615.1" gradientUnits="userSpaceOnUse">
<stop stop-color="#936AFF"/>
<stop offset="1" stop-color="#FFB471"/>
</linearGradient>
<linearGradient id="paint10_linear_87_6203" x1="199.316" y1="1138.91" x2="1290.17" y2="1605.47" gradientUnits="userSpaceOnUse">
<stop stop-color="#936AFF"/>
<stop offset="1" stop-color="#FFB471"/>
</linearGradient>
<linearGradient id="paint11_linear_87_6203" x1="176.806" y1="1129.29" x2="1267.66" y2="1595.84" gradientUnits="userSpaceOnUse">
<stop stop-color="#936AFF"/>
<stop offset="1" stop-color="#FFB471"/>
</linearGradient>
<linearGradient id="paint12_linear_87_6203" x1="154.296" y1="1119.66" x2="1245.15" y2="1586.22" gradientUnits="userSpaceOnUse">
<stop stop-color="#936AFF"/>
<stop offset="1" stop-color="#FFB471"/>
</linearGradient>
<linearGradient id="paint13_linear_87_6203" x1="131.784" y1="1110.03" x2="1222.64" y2="1576.59" gradientUnits="userSpaceOnUse">
<stop stop-color="#936AFF"/>
<stop offset="1" stop-color="#FFB471"/>
</linearGradient>
<linearGradient id="paint14_linear_87_6203" x1="109.274" y1="1100.4" x2="1200.13" y2="1566.96" gradientUnits="userSpaceOnUse">
<stop stop-color="#936AFF"/>
<stop offset="1" stop-color="#FFB471"/>
</linearGradient>
<linearGradient id="paint15_linear_87_6203" x1="86.7642" y1="1090.78" x2="1177.62" y2="1557.33" gradientUnits="userSpaceOnUse">
<stop stop-color="#936AFF"/>
<stop offset="1" stop-color="#FFB471"/>
</linearGradient>
<linearGradient id="paint16_linear_87_6203" x1="64.253" y1="1081.15" x2="1155.1" y2="1547.7" gradientUnits="userSpaceOnUse">
<stop stop-color="#936AFF"/>
<stop offset="1" stop-color="#FFB471"/>
</linearGradient>
<linearGradient id="paint17_linear_87_6203" x1="41.7419" y1="1071.52" x2="1132.59" y2="1538.08" gradientUnits="userSpaceOnUse">
<stop stop-color="#936AFF"/>
<stop offset="1" stop-color="#FFB471"/>
</linearGradient>
<linearGradient id="paint18_linear_87_6203" x1="19.2307" y1="1061.89" x2="1110.08" y2="1528.45" gradientUnits="userSpaceOnUse">
<stop stop-color="#936AFF"/>
<stop offset="1" stop-color="#FFB471"/>
</linearGradient>
<linearGradient id="paint19_linear_87_6203" x1="-3.27898" y1="1052.26" x2="1087.57" y2="1518.82" gradientUnits="userSpaceOnUse">
<stop stop-color="#936AFF"/>
<stop offset="1" stop-color="#FFB471"/>
</linearGradient>
</defs>
</svg>
