<svg width="86" height="24" viewBox="0 0 86 24" fill="none" xmlns="http://www.w3.org/2000/svg">
<path d="M10 19L3 12M3 12L10 5M3 12L21 12" stroke="#8B5CF6" stroke-width="2" stroke-linecap="round" stroke-linejoin="round"/>
<path d="M40.4091 17.5V5.86364H41.8182V11.0455H48.0227V5.86364H49.4318V17.5H48.0227V12.2955H41.8182V17.5H40.4091ZM54.2392 17.7045C53.6862 17.7045 53.1843 17.6004 52.7335 17.392C52.2828 17.1799 51.9248 16.875 51.6597 16.4773C51.3945 16.0758 51.2619 15.5909 51.2619 15.0227C51.2619 14.5227 51.3604 14.1174 51.5574 13.8068C51.7544 13.4924 52.0176 13.2462 52.3472 13.0682C52.6767 12.8902 53.0403 12.7576 53.4381 12.6705C53.8396 12.5795 54.243 12.5076 54.6483 12.4545C55.1786 12.3864 55.6085 12.3352 55.9381 12.3011C56.2714 12.2633 56.5138 12.2008 56.6653 12.1136C56.8206 12.0265 56.8983 11.875 56.8983 11.6591V11.6136C56.8983 11.053 56.7449 10.6174 56.4381 10.3068C56.135 9.99621 55.6748 9.84091 55.0574 9.84091C54.4172 9.84091 53.9153 9.98106 53.5517 10.2614C53.1881 10.5417 52.9324 10.8409 52.7847 11.1591L51.5119 10.7045C51.7392 10.1742 52.0422 9.76136 52.421 9.46591C52.8036 9.16667 53.2203 8.95833 53.671 8.84091C54.1256 8.7197 54.5725 8.65909 55.0119 8.65909C55.2922 8.65909 55.6142 8.69318 55.9778 8.76136C56.3453 8.82576 56.6994 8.96023 57.0403 9.16477C57.385 9.36932 57.671 9.67803 57.8983 10.0909C58.1256 10.5038 58.2392 11.0568 58.2392 11.75V17.5H56.8983V16.3182H56.8301C56.7392 16.5076 56.5877 16.7102 56.3756 16.9261C56.1634 17.142 55.8813 17.3258 55.529 17.4773C55.1767 17.6288 54.7468 17.7045 54.2392 17.7045ZM54.4438 16.5C54.9741 16.5 55.421 16.3958 55.7847 16.1875C56.1521 15.9792 56.4286 15.7102 56.6142 15.3807C56.8036 15.0511 56.8983 14.7045 56.8983 14.3409V13.1136C56.8415 13.1818 56.7165 13.2443 56.5233 13.3011C56.3339 13.3542 56.1142 13.4015 55.8642 13.4432C55.618 13.4811 55.3775 13.5152 55.1426 13.5455C54.9116 13.572 54.7241 13.5947 54.5801 13.6136C54.2316 13.6591 53.9059 13.733 53.6028 13.8352C53.3036 13.9337 53.0612 14.0833 52.8756 14.2841C52.6938 14.4811 52.6028 14.75 52.6028 15.0909C52.6028 15.5568 52.7752 15.9091 53.1199 16.1477C53.4684 16.3826 53.9097 16.5 54.4438 16.5ZM59.7412 15.2727H61.173C61.2033 15.6667 61.3813 15.9659 61.7071 16.1705C62.0366 16.375 62.4647 16.4773 62.9912 16.4773C63.5291 16.4773 63.9893 16.3674 64.3719 16.1477C64.7545 15.9242 64.9457 15.5644 64.9457 15.0682C64.9457 14.7765 64.8738 14.5227 64.7298 14.3068C64.5859 14.0871 64.3832 13.9167 64.1219 13.7955C63.8605 13.6742 63.5518 13.6136 63.1957 13.6136H61.6957V12.4091H63.1957C63.7298 12.4091 64.1238 12.2879 64.3776 12.0455C64.6351 11.803 64.7639 11.5 64.7639 11.1364C64.7639 10.7462 64.6257 10.4337 64.3491 10.1989C64.0726 9.96023 63.6806 9.84091 63.173 9.84091C62.6616 9.84091 62.2355 9.95644 61.8946 10.1875C61.5537 10.4148 61.3738 10.7083 61.3548 11.0682H59.9457C59.9609 10.5985 60.1048 10.1837 60.3776 9.82386C60.6503 9.46023 61.0215 9.17614 61.4912 8.97159C61.9609 8.76326 62.4988 8.65909 63.1048 8.65909C63.7185 8.65909 64.2507 8.76705 64.7014 8.98295C65.156 9.19508 65.5063 9.48485 65.7526 9.85227C66.0026 10.2159 66.1276 10.6288 66.1276 11.0909C66.1276 11.5833 65.9893 11.9811 65.7128 12.2841C65.4363 12.5871 65.0897 12.803 64.673 12.9318V13.0227C65.0026 13.0455 65.2885 13.1515 65.531 13.3409C65.7772 13.5265 65.9685 13.7708 66.1048 14.0739C66.2412 14.3731 66.3094 14.7045 66.3094 15.0682C66.3094 15.5985 66.1673 16.0606 65.8832 16.4545C65.5991 16.8447 65.209 17.1477 64.7128 17.3636C64.2166 17.5758 63.6503 17.6818 63.0139 17.6818C62.3965 17.6818 61.8435 17.5814 61.3548 17.3807C60.8662 17.1761 60.4779 16.8939 60.1901 16.5341C59.906 16.1705 59.7563 15.75 59.7412 15.2727ZM70.3611 17.7045C69.808 17.7045 69.3062 17.6004 68.8554 17.392C68.4046 17.1799 68.0467 16.875 67.7815 16.4773C67.5164 16.0758 67.3838 15.5909 67.3838 15.0227C67.3838 14.5227 67.4823 14.1174 67.6793 13.8068C67.8762 13.4924 68.1395 13.2462 68.469 13.0682C68.7986 12.8902 69.1622 12.7576 69.5599 12.6705C69.9615 12.5795 70.3649 12.5076 70.7702 12.4545C71.3005 12.3864 71.7304 12.3352 72.0599 12.3011C72.3933 12.2633 72.6357 12.2008 72.7872 12.1136C72.9425 12.0265 73.0202 11.875 73.0202 11.6591V11.6136C73.0202 11.053 72.8668 10.6174 72.5599 10.3068C72.2569 9.99621 71.7967 9.84091 71.1793 9.84091C70.5391 9.84091 70.0372 9.98106 69.6736 10.2614C69.3099 10.5417 69.0543 10.8409 68.9065 11.1591L67.6338 10.7045C67.8611 10.1742 68.1641 9.76136 68.5429 9.46591C68.9255 9.16667 69.3421 8.95833 69.7929 8.84091C70.2474 8.7197 70.6944 8.65909 71.1338 8.65909C71.4141 8.65909 71.7361 8.69318 72.0997 8.76136C72.4671 8.82576 72.8213 8.96023 73.1622 9.16477C73.5069 9.36932 73.7929 9.67803 74.0202 10.0909C74.2474 10.5038 74.3611 11.0568 74.3611 11.75V17.5H73.0202V16.3182H72.952C72.8611 16.5076 72.7096 16.7102 72.4974 16.9261C72.2853 17.142 72.0031 17.3258 71.6509 17.4773C71.2986 17.6288 70.8687 17.7045 70.3611 17.7045ZM70.5656 16.5C71.0959 16.5 71.5429 16.3958 71.9065 16.1875C72.274 15.9792 72.5505 15.7102 72.7361 15.3807C72.9255 15.0511 73.0202 14.7045 73.0202 14.3409V13.1136C72.9634 13.1818 72.8384 13.2443 72.6452 13.3011C72.4558 13.3542 72.2361 13.4015 71.9861 13.4432C71.7399 13.4811 71.4993 13.5152 71.2645 13.5455C71.0334 13.572 70.8459 13.5947 70.702 13.6136C70.3535 13.6591 70.0277 13.733 69.7247 13.8352C69.4255 13.9337 69.183 14.0833 68.9974 14.2841C68.8156 14.4811 68.7247 14.75 68.7247 15.0909C68.7247 15.5568 68.8971 15.9091 69.2418 16.1477C69.5902 16.3826 70.0315 16.5 70.5656 16.5ZM75.4767 20V16.25H76.204C76.382 16.0644 76.5354 15.8636 76.6642 15.6477C76.793 15.4318 76.9047 15.1761 76.9994 14.8807C77.0979 14.5814 77.1813 14.2178 77.2494 13.7898C77.3176 13.358 77.3782 12.8371 77.4313 12.2273L77.7267 8.77273H83.2722V16.25H84.6131V20H83.2722V17.5H76.8176V20H75.4767ZM77.7267 16.25H81.9313V10.0227H78.9767L78.7494 12.2273C78.6547 13.1402 78.5373 13.9375 78.3972 14.6193C78.257 15.3011 78.0335 15.8447 77.7267 16.25Z" fill="#8B5CF6"/>
</svg>
