<svg width="1577" height="1728" viewBox="0 0 1577 1728" fill="none" xmlns="http://www.w3.org/2000/svg">
<path d="M266.175 -115.485C413.43 291.124 607.349 -87.4659 877.633 341.55C1159.55 789.037 1352.4 2873.77 892.511 2063.55C647.638 1632.13 473.965 1608.86 383.418 1837.18" stroke="url(#paint0_linear_217_9675)" stroke-opacity="0.5"/>
<path d="M282.951 -117.833C430.205 288.776 624.124 -89.8143 894.409 339.202C1176.33 786.689 1369.18 2871.42 909.287 2061.2C664.414 1629.78 490.74 1606.52 400.193 1834.83" stroke="url(#paint1_linear_217_9675)" stroke-opacity="0.5"/>
<path d="M299.726 -120.181C446.981 286.427 640.899 -92.1626 911.184 336.853C1193.11 784.34 1385.95 2869.07 926.062 2058.85C681.189 1627.44 507.516 1604.17 416.969 1832.48" stroke="url(#paint2_linear_217_9675)" stroke-opacity="0.5"/>
<path d="M316.5 -122.53C463.755 284.079 657.674 -94.511 927.958 334.505C1209.88 781.992 1402.73 2866.73 942.837 2056.5C697.964 1625.09 524.29 1601.82 433.743 1830.13" stroke="url(#paint3_linear_217_9675)" stroke-opacity="0.5"/>
<path d="M333.276 -124.878C480.53 281.731 674.449 -96.8593 944.734 332.157C1226.66 779.644 1419.5 2864.38 959.612 2054.15C714.739 1622.74 541.065 1599.47 450.519 1827.78" stroke="url(#paint4_linear_217_9675)" stroke-opacity="0.5"/>
<path d="M350.05 -127.226C497.305 279.382 691.224 -99.2077 961.508 329.808C1243.43 777.295 1436.27 2862.03 976.386 2051.8C731.513 1620.39 557.84 1597.12 467.293 1825.44" stroke="url(#paint5_linear_217_9675)" stroke-opacity="0.5"/>
<path d="M366.826 -129.575C514.08 277.034 707.999 -101.556 978.284 327.46C1260.21 774.947 1453.05 2859.68 993.162 2049.46C748.289 1618.04 574.615 1594.77 484.068 1823.09" stroke="url(#paint6_linear_217_9675)" stroke-opacity="0.5"/>
<path d="M383.601 -131.923C530.856 274.685 724.774 -103.905 995.059 325.112C1276.98 772.598 1469.83 2857.33 1009.94 2047.11C765.064 1615.69 591.391 1592.43 500.844 1820.74" stroke="url(#paint7_linear_217_9675)" stroke-opacity="0.5"/>
<path d="M400.376 -134.272C547.631 272.337 741.55 -106.253 1011.83 322.763C1293.76 770.25 1486.6 2854.98 1026.71 2044.76C781.839 1613.35 608.166 1590.08 517.619 1818.39" stroke="url(#paint8_linear_217_9675)" stroke-opacity="0.5"/>
<path d="M417.151 -136.62C564.405 269.989 758.324 -108.601 1028.61 320.415C1310.53 767.901 1503.38 2852.64 1043.49 2042.41C798.614 1611 624.94 1587.73 534.394 1816.04" stroke="url(#paint9_linear_217_9675)" stroke-opacity="0.5"/>
<path d="M433.926 -138.968C581.181 267.64 775.1 -110.95 1045.38 318.066C1327.31 765.553 1520.15 2850.29 1060.26 2040.06C815.389 1608.65 641.716 1585.38 551.169 1813.69" stroke="url(#paint10_linear_217_9675)" stroke-opacity="0.5"/>
<path d="M450.701 -141.317C597.955 265.292 791.874 -113.298 1062.16 315.718C1344.08 763.205 1536.93 2847.94 1077.04 2037.71C832.164 1606.3 658.49 1583.03 567.943 1811.34" stroke="url(#paint11_linear_217_9675)" stroke-opacity="0.5"/>
<path d="M467.527 -144.115C614.781 262.494 808.7 -116.096 1078.98 312.92C1360.91 760.407 1553.75 2845.14 1093.86 2034.92C848.99 1603.5 675.316 1580.23 584.769 1808.55" stroke="url(#paint12_linear_217_9675)" stroke-opacity="0.5"/>
<path d="M484.252 -146.014C631.507 260.595 825.426 -117.995 1095.71 311.021C1377.63 758.508 1570.48 2843.24 1110.59 2033.02C865.715 1601.6 692.042 1578.34 601.495 1806.65" stroke="url(#paint13_linear_217_9675)" stroke-opacity="0.5"/>
<path d="M501.026 -148.362C648.28 258.247 842.199 -120.343 1112.48 308.673C1394.41 756.16 1587.25 2840.89 1127.36 2030.67C882.489 1599.26 708.815 1575.99 618.269 1804.3" stroke="url(#paint14_linear_217_9675)" stroke-opacity="0.5"/>
<path d="M517.801 -150.71C665.056 255.899 858.975 -122.692 1129.26 306.325C1411.18 753.811 1604.03 2838.54 1144.14 2028.32C899.264 1596.91 725.591 1573.64 635.044 1801.95" stroke="url(#paint15_linear_217_9675)" stroke-opacity="0.5"/>
<path d="M534.577 -153.059C681.831 253.55 875.75 -125.04 1146.03 303.976C1427.96 751.463 1620.8 2836.2 1160.91 2025.97C916.04 1594.56 742.366 1571.29 651.819 1799.6" stroke="url(#paint16_linear_217_9675)" stroke-opacity="0.5"/>
<path d="M551.352 -155.407C698.607 251.202 892.525 -127.388 1162.81 301.628C1444.73 749.115 1637.58 2833.85 1177.69 2023.62C932.815 1592.21 759.142 1568.94 668.595 1797.25" stroke="url(#paint17_linear_217_9675)" stroke-opacity="0.5"/>
<path d="M568.127 -157.756C715.382 248.853 909.301 -129.737 1179.59 299.279C1461.51 746.766 1654.35 2831.5 1194.46 2021.28C949.59 1589.86 775.917 1566.59 685.37 1794.91" stroke="url(#paint18_linear_217_9675)" stroke-opacity="0.5"/>
<path d="M584.901 -160.104C732.155 246.505 926.074 -132.085 1196.36 296.931C1478.28 744.418 1671.13 2829.15 1211.24 2018.93C966.364 1587.51 792.69 1564.25 702.144 1792.56" stroke="url(#paint19_linear_217_9675)" stroke-opacity="0.5"/>
<g filter="url(#filter0_f_217_9675)">
<circle cx="408.724" cy="97.2709" r="114.197" transform="rotate(4.11267 408.724 97.2709)" fill="#936AFF"/>
</g>
<path d="M132.447 547.112C234.799 932.499 443.549 600.454 657.091 1016.38C879.827 1450.21 888.264 3380.65 531.416 2599.24C341.409 2183.17 183.772 2147.75 82.1295 2350.13" stroke="url(#paint20_linear_217_9675)" stroke-opacity="0.5"/>
<path d="M148.045 546.312C250.397 931.699 459.146 599.654 672.689 1015.58C895.425 1449.41 903.862 3379.85 547.014 2598.44C357.006 2182.37 199.369 2146.95 97.7271 2349.33" stroke="url(#paint21_linear_217_9675)" stroke-opacity="0.5"/>
<path d="M163.644 545.512C265.996 930.9 474.746 598.855 688.288 1014.78C911.025 1448.61 919.461 3379.05 562.614 2597.64C372.606 2181.57 214.969 2146.15 113.327 2348.53" stroke="url(#paint22_linear_217_9675)" stroke-opacity="0.5"/>
<path d="M179.241 544.713C281.593 930.1 490.343 598.055 703.885 1013.98C926.621 1447.81 935.058 3378.25 578.21 2596.84C388.203 2180.77 230.566 2145.35 128.923 2347.73" stroke="url(#paint23_linear_217_9675)" stroke-opacity="0.5"/>
<path d="M194.84 543.913C297.192 929.301 505.941 597.256 719.484 1013.18C942.22 1447.01 950.656 3377.45 593.809 2596.04C403.801 2179.97 246.164 2144.55 144.522 2346.93" stroke="url(#paint24_linear_217_9675)" stroke-opacity="0.5"/>
<path d="M210.437 543.114C312.789 928.501 521.539 596.456 735.081 1012.38C957.818 1446.21 966.254 3376.65 609.407 2595.24C419.399 2179.17 261.762 2143.75 160.12 2346.13" stroke="url(#paint25_linear_217_9675)" stroke-opacity="0.5"/>
<path d="M226.035 542.314C328.387 927.702 537.137 595.657 750.679 1011.58C973.415 1445.41 981.852 3375.85 625.004 2594.44C434.996 2178.38 277.36 2142.95 175.717 2345.33" stroke="url(#paint26_linear_217_9675)" stroke-opacity="0.5"/>
<path d="M241.634 541.515C343.986 926.902 552.735 594.857 766.278 1010.78C989.014 1444.61 997.45 3375.05 640.603 2593.64C450.595 2177.58 292.958 2142.15 191.316 2344.53" stroke="url(#paint27_linear_217_9675)" stroke-opacity="0.5"/>
<path d="M257.231 540.715C359.583 926.102 568.333 594.057 781.875 1009.98C1004.61 1443.81 1013.05 3374.25 656.2 2592.85C466.193 2176.78 308.556 2141.35 206.914 2343.73" stroke="url(#paint28_linear_217_9675)" stroke-opacity="0.5"/>
<path d="M272.829 539.916C375.181 925.303 583.931 593.258 797.473 1009.18C1020.21 1443.01 1028.65 3373.45 671.798 2592.05C481.79 2175.98 324.154 2140.55 222.511 2342.93" stroke="url(#paint29_linear_217_9675)" stroke-opacity="0.5"/>
<path d="M288.428 539.116C390.78 924.503 599.529 592.458 813.072 1008.38C1035.81 1442.21 1044.24 3372.65 687.397 2591.25C497.389 2175.18 339.752 2139.75 238.11 2342.13" stroke="url(#paint30_linear_217_9675)" stroke-opacity="0.5"/>
<path d="M304.025 538.316C406.377 923.703 615.127 591.659 828.669 1007.58C1051.41 1441.41 1059.84 3371.85 702.994 2590.45C512.987 2174.38 355.35 2138.95 253.708 2341.33" stroke="url(#paint31_linear_217_9675)" stroke-opacity="0.5"/>
<path d="M319.706 537.108C422.058 922.495 630.808 590.45 844.35 1006.37C1067.09 1440.2 1075.52 3370.64 718.675 2589.24C528.667 2173.17 371.03 2137.74 269.388 2340.12" stroke="url(#paint32_linear_217_9675)" stroke-opacity="0.5"/>
<path d="M335.221 536.717C437.573 922.104 646.323 590.059 859.866 1005.98C1082.6 1439.81 1091.04 3370.25 734.191 2588.85C544.183 2172.78 386.546 2137.35 284.904 2339.73" stroke="url(#paint33_linear_217_9675)" stroke-opacity="0.5"/>
<path d="M350.819 535.917C453.171 921.305 661.921 589.26 875.463 1005.18C1098.2 1439.01 1106.64 3369.45 749.788 2588.05C559.781 2171.98 402.144 2136.55 300.502 2338.93" stroke="url(#paint34_linear_217_9675)" stroke-opacity="0.5"/>
<path d="M366.417 535.118C468.769 920.505 677.519 588.46 891.061 1004.38C1113.8 1438.21 1122.23 3368.66 765.386 2587.25C575.378 2171.18 417.741 2135.75 316.099 2338.13" stroke="url(#paint35_linear_217_9675)" stroke-opacity="0.5"/>
<path d="M382.014 534.318C484.366 919.705 693.116 587.661 906.659 1003.58C1129.39 1437.42 1137.83 3367.86 780.984 2586.45C590.976 2170.38 433.339 2134.95 331.697 2337.33" stroke="url(#paint36_linear_217_9675)" stroke-opacity="0.5"/>
<path d="M397.613 533.519C499.965 918.906 708.715 586.861 922.257 1002.78C1144.99 1436.62 1153.43 3367.06 796.582 2585.65C606.575 2169.58 448.938 2134.15 347.295 2336.53" stroke="url(#paint37_linear_217_9675)" stroke-opacity="0.5"/>
<path d="M413.212 532.719C515.564 918.106 724.313 586.061 937.856 1001.99C1160.59 1435.82 1169.03 3366.26 812.181 2584.85C622.173 2168.78 464.536 2133.35 362.894 2335.73" stroke="url(#paint38_linear_217_9675)" stroke-opacity="0.5"/>
<path d="M428.808 531.919C531.16 917.307 739.91 585.262 953.453 1001.19C1176.19 1435.02 1184.63 3365.46 827.778 2584.05C637.77 2167.98 480.133 2132.55 378.491 2334.93" stroke="url(#paint39_linear_217_9675)" stroke-opacity="0.5"/>
<g filter="url(#filter1_f_217_9675)">
<circle cx="392.697" cy="838.697" r="105.296" transform="rotate(9.14729 392.697 838.697)" fill="#936AFF"/>
</g>
<defs>
<filter id="filter0_f_217_9675" x="44.5225" y="-266.931" width="728.403" height="728.403" filterUnits="userSpaceOnUse" color-interpolation-filters="sRGB">
<feFlood flood-opacity="0" result="BackgroundImageFix"/>
<feBlend mode="normal" in="SourceGraphic" in2="BackgroundImageFix" result="shape"/>
<feGaussianBlur stdDeviation="125" result="effect1_foregroundBlur_217_9675"/>
</filter>
<filter id="filter1_f_217_9675" x="37.3848" y="483.385" width="710.624" height="710.624" filterUnits="userSpaceOnUse" color-interpolation-filters="sRGB">
<feFlood flood-opacity="0" result="BackgroundImageFix"/>
<feBlend mode="normal" in="SourceGraphic" in2="BackgroundImageFix" result="shape"/>
<feGaussianBlur stdDeviation="125" result="effect1_foregroundBlur_217_9675"/>
</filter>
<linearGradient id="paint0_linear_217_9675" x1="1085.06" y1="998.31" x2="272.157" y2="1112.11" gradientUnits="userSpaceOnUse">
<stop stop-color="#936AFF"/>
<stop offset="1" stop-color="#FFB471"/>
</linearGradient>
<linearGradient id="paint1_linear_217_9675" x1="1101.84" y1="995.961" x2="288.932" y2="1109.76" gradientUnits="userSpaceOnUse">
<stop stop-color="#936AFF"/>
<stop offset="1" stop-color="#FFB471"/>
</linearGradient>
<linearGradient id="paint2_linear_217_9675" x1="1118.62" y1="993.613" x2="305.707" y2="1107.41" gradientUnits="userSpaceOnUse">
<stop stop-color="#936AFF"/>
<stop offset="1" stop-color="#FFB471"/>
</linearGradient>
<linearGradient id="paint3_linear_217_9675" x1="1135.39" y1="991.265" x2="322.482" y2="1105.07" gradientUnits="userSpaceOnUse">
<stop stop-color="#936AFF"/>
<stop offset="1" stop-color="#FFB471"/>
</linearGradient>
<linearGradient id="paint4_linear_217_9675" x1="1152.17" y1="988.916" x2="339.257" y2="1102.72" gradientUnits="userSpaceOnUse">
<stop stop-color="#936AFF"/>
<stop offset="1" stop-color="#FFB471"/>
</linearGradient>
<linearGradient id="paint5_linear_217_9675" x1="1168.94" y1="986.568" x2="356.032" y2="1100.37" gradientUnits="userSpaceOnUse">
<stop stop-color="#936AFF"/>
<stop offset="1" stop-color="#FFB471"/>
</linearGradient>
<linearGradient id="paint6_linear_217_9675" x1="1185.72" y1="984.219" x2="372.807" y2="1098.02" gradientUnits="userSpaceOnUse">
<stop stop-color="#936AFF"/>
<stop offset="1" stop-color="#FFB471"/>
</linearGradient>
<linearGradient id="paint7_linear_217_9675" x1="1202.49" y1="981.871" x2="389.582" y2="1095.67" gradientUnits="userSpaceOnUse">
<stop stop-color="#936AFF"/>
<stop offset="1" stop-color="#FFB471"/>
</linearGradient>
<linearGradient id="paint8_linear_217_9675" x1="1219.27" y1="979.523" x2="406.358" y2="1093.32" gradientUnits="userSpaceOnUse">
<stop stop-color="#936AFF"/>
<stop offset="1" stop-color="#FFB471"/>
</linearGradient>
<linearGradient id="paint9_linear_217_9675" x1="1236.04" y1="977.174" x2="423.132" y2="1090.98" gradientUnits="userSpaceOnUse">
<stop stop-color="#936AFF"/>
<stop offset="1" stop-color="#FFB471"/>
</linearGradient>
<linearGradient id="paint10_linear_217_9675" x1="1252.82" y1="974.826" x2="439.908" y2="1088.63" gradientUnits="userSpaceOnUse">
<stop stop-color="#936AFF"/>
<stop offset="1" stop-color="#FFB471"/>
</linearGradient>
<linearGradient id="paint11_linear_217_9675" x1="1269.59" y1="972.477" x2="456.682" y2="1086.28" gradientUnits="userSpaceOnUse">
<stop stop-color="#936AFF"/>
<stop offset="1" stop-color="#FFB471"/>
</linearGradient>
<linearGradient id="paint12_linear_217_9675" x1="1286.42" y1="969.679" x2="473.508" y2="1083.48" gradientUnits="userSpaceOnUse">
<stop stop-color="#936AFF"/>
<stop offset="1" stop-color="#FFB471"/>
</linearGradient>
<linearGradient id="paint13_linear_217_9675" x1="1303.14" y1="967.781" x2="490.234" y2="1081.58" gradientUnits="userSpaceOnUse">
<stop stop-color="#936AFF"/>
<stop offset="1" stop-color="#FFB471"/>
</linearGradient>
<linearGradient id="paint14_linear_217_9675" x1="1319.92" y1="965.432" x2="507.007" y2="1079.23" gradientUnits="userSpaceOnUse">
<stop stop-color="#936AFF"/>
<stop offset="1" stop-color="#FFB471"/>
</linearGradient>
<linearGradient id="paint15_linear_217_9675" x1="1336.69" y1="963.084" x2="523.783" y2="1076.89" gradientUnits="userSpaceOnUse">
<stop stop-color="#936AFF"/>
<stop offset="1" stop-color="#FFB471"/>
</linearGradient>
<linearGradient id="paint16_linear_217_9675" x1="1353.47" y1="960.736" x2="540.558" y2="1074.54" gradientUnits="userSpaceOnUse">
<stop stop-color="#936AFF"/>
<stop offset="1" stop-color="#FFB471"/>
</linearGradient>
<linearGradient id="paint17_linear_217_9675" x1="1370.24" y1="958.387" x2="557.333" y2="1072.19" gradientUnits="userSpaceOnUse">
<stop stop-color="#936AFF"/>
<stop offset="1" stop-color="#FFB471"/>
</linearGradient>
<linearGradient id="paint18_linear_217_9675" x1="1387.02" y1="956.039" x2="574.109" y2="1069.84" gradientUnits="userSpaceOnUse">
<stop stop-color="#936AFF"/>
<stop offset="1" stop-color="#FFB471"/>
</linearGradient>
<linearGradient id="paint19_linear_217_9675" x1="1403.79" y1="953.69" x2="590.882" y2="1067.49" gradientUnits="userSpaceOnUse">
<stop stop-color="#936AFF"/>
<stop offset="1" stop-color="#FFB471"/>
</linearGradient>
<linearGradient id="paint20_linear_217_9675" x1="794.474" y1="1636.4" x2="38.6064" y2="1675.15" gradientUnits="userSpaceOnUse">
<stop stop-color="#936AFF"/>
<stop offset="1" stop-color="#FFB471"/>
</linearGradient>
<linearGradient id="paint21_linear_217_9675" x1="810.072" y1="1635.6" x2="54.204" y2="1674.35" gradientUnits="userSpaceOnUse">
<stop stop-color="#936AFF"/>
<stop offset="1" stop-color="#FFB471"/>
</linearGradient>
<linearGradient id="paint22_linear_217_9675" x1="825.671" y1="1634.8" x2="69.8036" y2="1673.55" gradientUnits="userSpaceOnUse">
<stop stop-color="#936AFF"/>
<stop offset="1" stop-color="#FFB471"/>
</linearGradient>
<linearGradient id="paint23_linear_217_9675" x1="841.268" y1="1634" x2="85.4003" y2="1672.75" gradientUnits="userSpaceOnUse">
<stop stop-color="#936AFF"/>
<stop offset="1" stop-color="#FFB471"/>
</linearGradient>
<linearGradient id="paint24_linear_217_9675" x1="856.867" y1="1633.2" x2="100.999" y2="1671.95" gradientUnits="userSpaceOnUse">
<stop stop-color="#936AFF"/>
<stop offset="1" stop-color="#FFB471"/>
</linearGradient>
<linearGradient id="paint25_linear_217_9675" x1="872.464" y1="1632.4" x2="116.597" y2="1671.15" gradientUnits="userSpaceOnUse">
<stop stop-color="#936AFF"/>
<stop offset="1" stop-color="#FFB471"/>
</linearGradient>
<linearGradient id="paint26_linear_217_9675" x1="888.062" y1="1631.6" x2="132.194" y2="1670.35" gradientUnits="userSpaceOnUse">
<stop stop-color="#936AFF"/>
<stop offset="1" stop-color="#FFB471"/>
</linearGradient>
<linearGradient id="paint27_linear_217_9675" x1="903.661" y1="1630.8" x2="147.793" y2="1669.55" gradientUnits="userSpaceOnUse">
<stop stop-color="#936AFF"/>
<stop offset="1" stop-color="#FFB471"/>
</linearGradient>
<linearGradient id="paint28_linear_217_9675" x1="919.258" y1="1630" x2="163.391" y2="1668.75" gradientUnits="userSpaceOnUse">
<stop stop-color="#936AFF"/>
<stop offset="1" stop-color="#FFB471"/>
</linearGradient>
<linearGradient id="paint29_linear_217_9675" x1="934.856" y1="1629.2" x2="178.988" y2="1667.95" gradientUnits="userSpaceOnUse">
<stop stop-color="#936AFF"/>
<stop offset="1" stop-color="#FFB471"/>
</linearGradient>
<linearGradient id="paint30_linear_217_9675" x1="950.455" y1="1628.4" x2="194.587" y2="1667.15" gradientUnits="userSpaceOnUse">
<stop stop-color="#936AFF"/>
<stop offset="1" stop-color="#FFB471"/>
</linearGradient>
<linearGradient id="paint31_linear_217_9675" x1="966.052" y1="1627.6" x2="210.184" y2="1666.35" gradientUnits="userSpaceOnUse">
<stop stop-color="#936AFF"/>
<stop offset="1" stop-color="#FFB471"/>
</linearGradient>
<linearGradient id="paint32_linear_217_9675" x1="981.733" y1="1626.39" x2="225.865" y2="1665.14" gradientUnits="userSpaceOnUse">
<stop stop-color="#936AFF"/>
<stop offset="1" stop-color="#FFB471"/>
</linearGradient>
<linearGradient id="paint33_linear_217_9675" x1="997.249" y1="1626" x2="241.381" y2="1664.75" gradientUnits="userSpaceOnUse">
<stop stop-color="#936AFF"/>
<stop offset="1" stop-color="#FFB471"/>
</linearGradient>
<linearGradient id="paint34_linear_217_9675" x1="1012.85" y1="1625.2" x2="256.978" y2="1663.95" gradientUnits="userSpaceOnUse">
<stop stop-color="#936AFF"/>
<stop offset="1" stop-color="#FFB471"/>
</linearGradient>
<linearGradient id="paint35_linear_217_9675" x1="1028.44" y1="1624.41" x2="272.576" y2="1663.15" gradientUnits="userSpaceOnUse">
<stop stop-color="#936AFF"/>
<stop offset="1" stop-color="#FFB471"/>
</linearGradient>
<linearGradient id="paint36_linear_217_9675" x1="1044.04" y1="1623.61" x2="288.174" y2="1662.35" gradientUnits="userSpaceOnUse">
<stop stop-color="#936AFF"/>
<stop offset="1" stop-color="#FFB471"/>
</linearGradient>
<linearGradient id="paint37_linear_217_9675" x1="1059.64" y1="1622.81" x2="303.772" y2="1661.55" gradientUnits="userSpaceOnUse">
<stop stop-color="#936AFF"/>
<stop offset="1" stop-color="#FFB471"/>
</linearGradient>
<linearGradient id="paint38_linear_217_9675" x1="1075.24" y1="1622.01" x2="319.371" y2="1660.75" gradientUnits="userSpaceOnUse">
<stop stop-color="#936AFF"/>
<stop offset="1" stop-color="#FFB471"/>
</linearGradient>
<linearGradient id="paint39_linear_217_9675" x1="1090.84" y1="1621.21" x2="334.968" y2="1659.95" gradientUnits="userSpaceOnUse">
<stop stop-color="#936AFF"/>
<stop offset="1" stop-color="#FFB471"/>
</linearGradient>
</defs>
</svg>
