<svg width="1468" height="529" viewBox="0 0 1468 529" fill="none" xmlns="http://www.w3.org/2000/svg">
<g opacity="0.5">
<g clip-path="url(#clip0_165_18876)">
<path d="M68.8882 63.6016C133.375 98.6856 189.943 146.678 235.065 204.587C301.531 290.968 296.039 342.341 360.974 392.59C424.087 441.391 512.423 457.213 585.031 442.006C684.103 421.236 690.74 355.907 820.177 256.414C896.296 197.957 1039.04 88.2052 1202.51 104.769C1285.1 113.143 1366.15 153.065 1441.49 190.152C1533.83 235.611 1546.56 257.801 1596.83 269.512C1656.53 283.44 1749.73 278.079 1886.93 176.042" stroke="url(#paint0_linear_165_18876)" stroke-width="0.862752" stroke-miterlimit="10"/>
<path d="M66.6492 75.5856C124.783 106.457 176.74 147.762 219.923 197.438C224.051 202.251 228.174 207.194 232.325 212.266C299.588 296.029 295.172 345.117 359.31 394.146C387.264 415.597 419.205 431.276 453.274 440.272C477.677 446.693 502.82 449.876 528.054 449.74C546.924 449.627 565.722 447.39 584.092 443.071C604.553 438.536 624.123 430.649 642.01 419.73C674.93 399.551 698.436 371.609 734.33 336.762C761.366 310.537 790.624 286.703 821.775 265.528C838.278 254.15 857.568 240.415 879.801 226.424C939.291 188.885 1015.16 148.475 1104.97 136.649C1135.45 132.492 1166.3 131.794 1196.94 134.568C1201.63 134.983 1206.29 135.526 1210.88 136.131C1256.34 142.07 1299.39 155.216 1343.26 172.225C1376.08 184.803 1407.01 200.154 1437.7 214.627C1450.55 220.796 1462.04 226.404 1472.41 231.652C1535.03 263.445 1551.02 279.908 1594.23 288.319C1627.07 294.706 1669.81 295.202 1724.64 278.207C1769.61 264.299 1823.16 238.33 1886.31 194.529" stroke="url(#paint1_linear_165_18876)" stroke-width="0.862752" stroke-miterlimit="10"/>
<path d="M64.5369 87.6387C122.095 117.398 173.768 157.366 217.039 205.596C221.182 210.249 225.322 215.009 229.458 219.876C297.679 301.06 294.405 347.8 357.678 395.704C385.692 417.425 417.726 433.389 451.936 442.678C476.483 449.141 501.794 452.244 527.175 451.903C546.082 451.573 564.878 448.954 583.155 444.104C603.535 438.945 623.012 430.714 640.915 419.694C675.145 398.914 699.844 371.946 735.271 339.47C762.377 314.827 791.898 292.979 823.385 274.256C839.843 264.231 858.667 251.899 880.611 239.8C939.086 207.547 1010.18 174.039 1098.98 165.307C1129.67 162.121 1160.58 161.774 1191.33 164.271C1196.09 164.688 1200.78 165.167 1205.4 165.741C1251.65 171.352 1293.67 182.786 1338.49 198.119C1372.25 209.696 1402.89 224.779 1433.85 239.068C1446.71 244.98 1458.33 250.366 1468.97 255.398C1531.84 285.264 1548.46 300.459 1591.57 307.061C1624.42 312.094 1666.88 311.355 1722.01 294.144C1767.05 280.045 1821.26 254.614 1885.69 213.08" stroke="url(#paint2_linear_165_18876)" stroke-width="0.862752" stroke-miterlimit="10"/>
<path d="M62.1084 99.4875C119.224 128.178 170.722 166.892 214.152 213.786C218.289 218.309 222.456 222.898 226.588 227.583C295.831 306.157 293.537 350.609 355.981 397.259C385.551 419.336 414.869 435.505 450.499 445.113C475.211 451.627 500.713 454.651 526.263 454.097C545.213 453.541 564.01 450.529 582.185 445.135C602.496 439.358 621.904 430.784 639.852 419.658C675.327 398.275 701.184 372.346 736.176 342.273C763.377 319.2 793.183 299.388 824.986 283.241C841.56 274.574 859.789 263.641 881.412 253.434C939.172 226.154 1005.19 199.764 1092.99 194.061C1123.88 191.858 1154.89 191.873 1185.79 194.104C1190.58 194.49 1195.43 194.943 1199.93 195.48C1245.31 200.73 1290.08 210.338 1333.62 224.17C1368.32 234.714 1398.71 249.66 1430.06 263.607C1442.93 269.326 1454.66 274.458 1465.59 279.274C1528.69 307.181 1545.96 321.043 1588.94 325.932C1621.83 329.677 1664.11 327.609 1719.45 310.18C1764.58 296.084 1819.37 270.866 1885.08 231.439" stroke="url(#paint3_linear_165_18876)" stroke-width="0.862752" stroke-miterlimit="10"/>
<path d="M59.8386 111.439C116.428 139.07 167.692 176.48 211.268 221.944C215.409 226.338 219.615 230.735 223.72 235.258C293.82 311.345 292.74 353.226 354.316 398.848C384.555 421.173 412.86 437.727 449.128 447.55C473.981 454.125 499.657 457.058 525.353 456.259C544.395 455.518 563.241 452.122 581.344 446.171C601.539 439.827 620.858 430.973 638.847 419.818C675.569 397.799 702.742 373.011 737.18 345.047C761.475 325.353 789.999 308.381 826.686 292.197C843.345 284.823 861.142 275.262 882.346 266.975C939.717 244.552 1000.33 225.461 1086.96 222.782C1118.02 221.534 1149.13 221.897 1180.15 223.87C1185 224.226 1189.79 224.644 1194.39 225.12C1239.88 229.635 1284.9 238.002 1328.98 250.132C1364.68 259.646 1394.62 274.48 1426.31 287.987C1439.03 293.507 1451.08 298.489 1462.28 303.023C1525.57 329.131 1543.5 341.5 1586.41 344.645C1619.35 347.07 1661.38 343.737 1716.95 326.121C1762.08 311.8 1817.5 287.086 1884.46 249.829" stroke="url(#paint4_linear_165_18876)" stroke-width="0.862752" stroke-miterlimit="10"/>
<path d="M57.6006 123.39C113.65 149.98 164.666 186.085 208.383 230.101C212.53 234.335 216.742 238.539 220.853 242.868C291.916 316.183 291.906 356.003 352.588 400.37C383.495 422.976 410.787 439.914 447.661 449.951C472.68 456.581 498.55 459.425 524.411 458.388C543.464 457.447 562.271 453.675 580.213 447.197C600.309 440.256 619.557 431.069 637.59 419.808C675.588 397.219 704.107 373.669 737.926 347.813C762.907 328.787 791.965 314.153 828.129 301.112C844.938 295.033 862.299 286.908 882.993 280.378C940.434 262.632 995.283 251.022 1080.91 251.309C1110.67 251.402 1143.6 251.375 1174.51 253.474C1179.43 253.8 1184.16 254.184 1188.86 254.599C1234.38 258.374 1279.57 265.49 1324.05 275.891C1360.69 284.372 1390.41 299.102 1422.47 312.363C1435.35 317.696 1447.35 322.321 1458.84 326.704C1522.32 351.173 1540.99 362.761 1583.69 363.513C1616.68 364.102 1658.48 359.987 1714.25 342.088C1759.43 327.479 1815.51 303.335 1883.72 268.28" stroke="url(#paint5_linear_165_18876)" stroke-width="0.862752" stroke-miterlimit="10"/>
<path d="M55.3313 135.309C110.851 160.882 161.628 195.693 205.498 238.259C209.65 242.332 213.9 246.375 217.985 250.51C290.037 321.279 291.106 358.685 350.891 401.925C382.372 424.744 408.715 442.102 446.258 452.387C471.394 459.034 497.401 461.785 523.371 460.546C542.494 459.387 561.316 455.23 579.147 448.225C599.102 440.654 618.266 431.144 636.364 419.831C675.609 396.607 705.605 374.17 738.64 350.545C764.345 332.059 793.964 319.96 829.539 310.026C846.563 305.244 864.993 302.765 883.599 294.069C943.042 293.576 990.523 271.853 1074.69 280.152C1104.42 283.114 1137.91 281.494 1168.71 283.299C1173.7 283.627 1178.52 283.949 1183.15 284.33C1232.74 288.344 1270.65 292.353 1319.09 301.777C1356.67 309.194 1386.07 323.849 1418.49 336.735C1431.22 341.869 1443.48 346.278 1455.27 350.445C1518.85 372.951 1538.27 382.242 1580.94 382.058C1613.99 381.842 1655.59 375.948 1711.56 357.894C1756.81 343.287 1813.45 319.388 1882.98 286.537" stroke="url(#paint6_linear_165_18876)" stroke-width="0.862752" stroke-miterlimit="10"/>
<path d="M53.061 147.26C108.045 171.815 158.58 205.31 202.614 246.385C206.803 250.33 211.059 254.18 215.119 258.121C288.321 326.283 290.437 361.339 349.323 403.485C381.602 426.556 406.803 444.295 444.951 454.826C470.304 461.553 496.565 464.206 522.751 462.685C544.036 461.624 561.674 455.83 578.468 449.234C598.297 441.049 617.404 431.216 635.59 419.838C676.08 396.011 707.678 374.852 739.903 353.296C766.291 335.574 796.604 325.852 831.337 318.921C848.671 315.471 866.61 315.136 884.629 307.614C943.836 314.174 985.49 302.768 1068.9 308.816C1098.81 311.01 1132.62 311.432 1163.33 313.137C1168.35 313.305 1173.24 313.695 1177.84 314.01C1228.28 317.601 1265.16 319.802 1314.51 327.935C1352.99 334.317 1382.1 348.866 1414.89 361.41C1427.62 366.351 1440 370.505 1452.08 374.456C1515.88 395.228 1535.96 403.059 1578.53 401.033C1611.63 399.53 1652.98 392.369 1709.18 374.098C1754.46 359.491 1811.74 335.872 1882.54 305.224" stroke="url(#paint7_linear_165_18876)" stroke-width="0.862752" stroke-miterlimit="10"/>
<path d="M50.8242 159.18C105.245 182.751 155.522 214.916 199.732 254.446C203.925 258.262 208.219 261.953 212.448 265.673C286.512 331.221 289.771 363.896 347.663 404.913C380.611 428.231 404.799 446.388 443.585 457.101C469.058 463.898 495.472 466.481 521.78 464.749C543.36 463.504 560.726 457.185 577.438 450.167C598.074 441.507 615.156 431.116 634.397 419.83C676.164 395.433 713.69 381.18 740.746 356.033C770.834 344.368 799.373 321.14 832.973 327.843C850.462 331.33 868.132 327.472 885.498 321.153C944.502 334.736 980.723 328.629 1062.97 337.508C1092.98 340.737 1127.33 341.371 1157.78 342.874C1162.91 343.045 1167.8 343.209 1172.43 343.654C1223.66 346.82 1259.53 347.118 1309.77 353.894C1349.29 359.182 1378.01 373.654 1411.14 385.855C1423.88 390.602 1436.39 394.535 1448.74 398.237C1512.59 417.302 1533.54 423.452 1576 419.811C1609.18 416.956 1650.31 408.53 1706.68 390.039C1752.03 375.242 1809.78 352.089 1881.99 323.649" stroke="url(#paint8_linear_165_18876)" stroke-width="0.862752" stroke-miterlimit="10"/>
<path d="M48.5554 171.098C102.443 193.731 152.474 224.626 196.846 262.668C201.044 266.323 205.349 269.692 209.612 273.349C284.891 336.293 288.94 366.576 345.998 406.501C379.648 430.037 402.79 448.61 442.181 459.569C467.815 466.398 494.411 468.891 520.868 466.943C542.745 465.515 559.841 458.574 576.499 451.232C596.76 442.237 613.666 431.324 633.301 419.826C676.316 394.761 715.713 382.408 741.752 358.742C772.824 348.497 803.051 326.874 834.675 336.735C851.971 342.118 869.685 339.841 886.335 334.691C945.136 355.296 975.954 354.554 1057.01 366.199C1087.12 370.431 1121.72 371.331 1152.24 372.611L1166.96 373.103C1219.04 375.814 1253.98 374.307 1305.04 379.659C1345.52 383.884 1373.9 398.312 1407.39 410.138C1420.14 414.691 1432.75 418.37 1445.41 421.824C1509.31 439.247 1531.09 443.748 1573.44 438.427C1606.66 434.219 1647.58 424.529 1704.15 405.851C1749.54 390.893 1808.05 368.185 1881.41 341.912" stroke="url(#paint9_linear_165_18876)" stroke-width="0.862752" stroke-miterlimit="10"/>
<path d="M46.2874 182.985C99.5757 204.713 149.31 234.298 193.834 270.757C198.074 274.124 202.379 277.492 206.652 280.86C282.858 341.159 288.083 369.063 344.272 407.992C378.624 431.712 400.881 450.739 440.748 461.908C466.524 468.818 493.299 471.231 519.895 469.039C542.101 467.428 558.889 460.058 575.468 452.197C595.359 442.674 612.114 431.466 632.142 419.787C676.434 394.12 717.672 383.603 742.5 361.444C774.589 352.587 804.146 350.029 836.12 345.586C854.234 349.674 870.983 352.137 887.044 348.193C945.605 375.948 970.959 380.472 1050.9 394.788C1081.09 400.216 1116.13 401.614 1146.54 402.278C1151.76 402.452 1156.75 402.619 1161.36 402.774C1214.33 403.869 1248.13 401.647 1300.14 405.645C1341.63 408.807 1369.62 423.157 1403.51 434.642C1416.26 438.97 1429.04 442.461 1441.84 445.598C1505.8 461.378 1528.28 464.161 1570.62 457.163C1603.92 451.635 1644.59 440.68 1701.43 421.785C1746.85 406.7 1805.86 384.395 1880.6 360.296" stroke="url(#paint10_linear_165_18876)" stroke-width="0.862752" stroke-miterlimit="10"/>
<path d="M44.0505 194.905C96.8367 215.719 146.362 244.002 191.111 278.888C195.32 282.253 199.664 285.398 203.943 288.572C281.271 346.2 287.477 371.751 342.673 409.518C377.725 433.52 398.776 452.926 439.409 464.346C465.405 471.335 492.437 473.648 519.243 471.177C541.874 469.387 558.421 461.525 574.659 453.234C594.339 443.285 610.849 431.681 631.211 419.659C676.716 393.388 719.86 384.707 743.541 364.058C776.615 356.62 806.542 356.494 837.859 354.317C856.142 360.088 872.574 364.314 888.015 361.542C946.346 396.222 966.258 406.303 1045.04 423.289C1075.33 429.816 1110.78 431.389 1141.1 431.856C1146.38 432.033 1151.38 432.2 1156.01 432.355C1209.78 432.962 1242.61 428.805 1295.5 431.51C1337.93 433.607 1365.6 447.915 1399.86 459.025C1412.61 463.192 1425.41 466.329 1438.69 469.385C1502.7 483.586 1526.14 484.629 1568.25 475.946C1601.6 469.066 1642.05 456.877 1699.09 437.764C1744.54 422.551 1804.32 400.659 1880.21 378.758" stroke="url(#paint11_linear_165_18876)" stroke-width="0.862752" stroke-miterlimit="10"/>
<path d="M41.7822 206.791C94.023 226.738 143.294 253.729 188.227 287.014C192.468 290.38 196.824 293.17 201.108 296.183C279.591 351.109 286.779 374.307 341.009 411.042C376.765 435.229 396.77 455.051 438.04 466.718C464.131 473.749 491.283 475.98 518.172 473.301C540.811 471.286 557.47 462.945 573.627 454.199C592.805 443.814 609.2 431.82 630.046 419.781C676.83 392.876 721.813 386.063 744.381 366.891C778.472 360.842 808.647 362.948 839.393 363.397C857.814 370.817 873.961 376.839 888.75 375.238C946.876 416.972 961.318 432.481 1038.98 452.137C1069.36 459.796 1105.24 461.062 1135.39 461.813C1140.74 461.992 1145.76 462.16 1150.4 462.315C1205.02 462.434 1236.8 457.823 1290.62 457.787C1334.02 457.756 1361.34 473.051 1395.96 483.883C1408.85 487.827 1421.95 491.064 1435.2 493.58C1499.27 506.235 1523.54 505.5 1565.54 495.137C1598.97 486.905 1639.17 473.483 1696.41 454.15C1742.07 438.815 1802.31 417.294 1879.48 397.596" stroke="url(#paint12_linear_165_18876)" stroke-width="0.862752" stroke-miterlimit="10"/>
<path d="M39.7449 211.785C91.4447 230.938 140.458 256.681 185.57 288.376C189.821 291.42 194.21 294.211 198.533 297.032C278.137 349.255 286.371 370.102 339.574 405.771C376.03 430.206 394.99 450.445 436.864 462.326C463.113 469.423 490.453 471.574 517.489 468.668C540.586 466.442 556.906 457.638 572.981 448.438C591.698 437.392 607.847 425.035 629.181 412.852C677.208 385.44 724.101 380.335 745.521 362.706C780.597 358.043 811.049 362.48 841.23 365.361C859.788 374.462 875.617 382.247 889.786 381.85C947.709 430.607 956.706 451.802 1033.2 473.708C1063.7 482.5 1099.99 483.876 1130.09 484.399L1145.17 484.614C1200.6 485.502 1231.44 476.539 1286.1 476.433C1330.5 476.307 1357.43 490.59 1392.42 500.95C1405.47 504.718 1418.72 507.735 1432.1 509.985C1496.06 521.089 1521.33 518.517 1563.2 506.505C1596.7 496.921 1636.69 482.267 1694.12 462.715C1739.78 447.251 1800.69 426.139 1879.15 408.645" stroke="url(#paint13_linear_165_18876)" stroke-width="0.862752" stroke-miterlimit="10"/>
<path d="M37.7446 213.75C88.8884 231.999 137.638 256.366 182.93 286.321C187.218 289.237 191.613 291.835 195.943 294.463C276.828 344.052 285.911 362.671 338.249 397.182C375.441 421.803 393.321 442.49 435.833 454.617C462.251 461.73 489.782 463.746 516.954 460.557C540.316 458.114 556.454 448.981 572.324 439.195C590.724 427.977 606.791 415.166 628.358 402.765C677.666 374.654 726.396 371.481 746.702 355.361C782.796 352.088 814.819 353.869 843.139 364.2C863.43 371.618 877.374 384.692 890.805 385.141C948.493 440.919 952.011 467.799 1027.38 492.28C1057.94 502.266 1094.72 503.723 1124.66 504.048C1130.13 504.231 1135.23 504.144 1139.84 504.169C1196.13 504.57 1225.93 493.734 1281.5 492.24C1326.85 491.017 1353.46 505.289 1388.82 515.179C1401.99 518.81 1415.38 521.606 1428.91 523.549C1492.88 533.171 1519.02 528.726 1560.78 515.066C1594.33 504.097 1634.1 488.21 1691.74 468.472C1737.4 452.879 1798.97 432.175 1878.72 416.691" stroke="url(#paint14_linear_165_18876)" stroke-width="0.862752" stroke-miterlimit="10"/>
<path d="M35.9075 215.655C86.513 233.103 135.006 256.162 180.48 284.401C184.805 287.157 189.239 289.563 193.541 292.028C275.555 338.754 285.589 354.953 336.924 388.593C374.787 413.398 391.621 434.533 434.931 446.881C461.481 454.183 489.206 456.207 516.536 452.837C540.227 450.179 556.159 440.459 571.845 430.376C589.904 418.76 605.793 405.492 627.914 392.915C678.435 364.201 729.038 362.896 748.262 348.255C785.312 346.271 817.884 350.94 845.33 363.273C865.947 372.54 879.425 386.985 892.32 388.997C949.772 451.828 947.813 484.361 1022.11 511.288C1052.75 522.47 1089.88 523.971 1119.79 524.23L1135.08 524.226C1192.18 524.171 1220.98 511.431 1277.47 508.614C1323.82 506.264 1350.04 520.716 1385.8 530.135C1399.11 533.659 1412.64 536.266 1426.3 537.939C1490.26 546.11 1517.3 539.76 1558.95 524.452C1592.54 512.131 1632.07 495.01 1689.94 475.054C1751.23 453.015 1814.35 436.482 1878.58 425.65" stroke="url(#paint15_linear_165_18876)" stroke-width="0.862752" stroke-miterlimit="10"/>
<path d="M34.0176 216.237C84.0929 232.96 132.328 254.756 177.972 281.286C182.335 283.882 186.774 286.127 191.083 288.399C274.318 332.36 285.263 346.366 335.637 378.877C374.268 403.869 389.99 425.45 433.776 438.04C460.495 445.376 488.418 447.254 515.879 443.56C539.836 440.687 555.589 430.509 571.129 419.969C588.814 407.954 604.524 394.261 626.974 381.502C678.772 352.185 731.118 352.744 749.325 339.585C787.389 339.118 820.387 346.478 847.091 360.753C867.998 371.932 881.036 387.974 893.28 391.124C950.53 460.978 943.06 499.195 1016.24 528.567C1046.97 540.946 1084.55 542.462 1114.34 542.459C1119.92 542.453 1125.12 542.368 1129.73 542.329C1187.79 541.79 1215.46 527.207 1272.8 523.032C1320.09 519.585 1345.98 533.897 1382.11 543.07C1395.56 546.416 1409.23 548.77 1423.02 550.114C1486.99 556.866 1514.91 548.547 1556.46 531.623C1590.09 517.917 1629.4 499.596 1687.47 479.388C1749.3 457.238 1813.27 441.602 1878.34 432.736" stroke="url(#paint16_linear_165_18876)" stroke-width="0.862752" stroke-miterlimit="10"/>
<path d="M32.2109 214.338C81.766 230.324 129.748 250.829 175.551 275.595C179.919 278.03 184.395 280.115 188.71 282.226C273.201 323.327 285.194 334.949 334.436 366.584C373.802 391.762 388.445 413.823 432.869 426.595C459.734 434.011 487.84 435.808 515.431 431.874C539.687 428.752 555.261 418.149 570.623 407.152C587.963 394.835 603.497 380.619 626.34 367.68C679.384 337.76 733.669 340.125 750.696 328.507C789.745 329.427 823.099 339.636 849.158 355.857C870.257 369.009 882.955 386.523 894.58 390.846C951.593 467.753 938.581 511.62 1010.71 543.408C1041.47 557.013 1079.53 558.609 1109.23 558.378C1114.85 558.34 1120.07 558.225 1124.69 558.154C1183.5 557.156 1210.17 540.637 1268.4 535.137C1316.66 530.562 1342.23 544.896 1378.66 553.692C1392.26 556.872 1406.09 559.005 1420.01 560.074C1484 565.44 1512.75 555.117 1554.19 536.578C1587.88 521.583 1627 501.934 1685.27 481.54C1747.55 459.159 1812.28 444.32 1878.09 437.338" stroke="url(#paint17_linear_165_18876)" stroke-width="0.862752" stroke-miterlimit="10"/>
<path d="M30.4365 212.441C79.4656 227.748 127.183 246.974 173.128 269.935C177.534 272.211 182.018 274.07 186.338 276.02C272.115 314.359 284.702 323.647 333.236 354.291C373.306 379.622 386.9 402.163 431.929 415.182C458.95 422.697 487.256 424.403 514.984 420.186C539.539 416.784 554.932 405.821 570.149 394.335C587.151 381.523 602.471 366.978 625.706 353.859C680.025 323.433 736.219 327.507 752.067 317.397C787.609 319.01 821.971 330.633 851.193 350.927C872.45 366.083 884.875 385.039 895.846 390.566C952.657 474.495 934.07 524.044 1005.19 558.249C1035.96 573.111 1074.51 574.659 1104.09 574.295C1109.8 574.228 1115.03 574.081 1119.68 573.946C1179.28 572.395 1205.04 554.233 1264.15 547.248C1313.32 541.574 1338.64 555.899 1375.44 564.321C1388.24 567.233 1401.82 568.074 1417.16 570.006C1480.8 578.037 1510.79 561.694 1552.13 541.506C1585.86 525.03 1624.76 504.277 1683.23 483.664C1746.02 461.058 1811.56 446.984 1878.1 441.821" stroke="url(#paint18_linear_165_18876)" stroke-width="0.862752" stroke-miterlimit="10"/>
<path d="M28.6304 210.543C77.1567 225.188 124.626 243.13 170.707 264.244C175.152 266.327 179.64 268.057 183.999 269.816C270.978 304.97 284.628 312.36 332.035 341.998C372.873 367.516 385.227 390.5 431.022 403.769C458.244 411.377 486.792 412.993 514.698 408.504C539.521 404.821 554.733 393.465 569.804 381.523C586.369 368.309 601.573 353.341 625.202 340.042C680.802 308.885 738.901 314.828 753.567 306.323C790.008 309.459 824.7 323.334 853.254 346.191C874.575 363.317 886.789 383.749 897.108 390.447C953.716 481.398 929.522 536.628 999.62 573.281C1030.46 589.371 1069.45 590.902 1099.01 590.376C1104.75 590.278 1110.04 590.068 1114.66 589.933C1175.12 587.861 1199.85 567.698 1259.87 559.518C1310.05 552.718 1334.88 567.123 1372.21 575.112C1386.16 577.532 1400.24 579.209 1414.38 580.134C1478.17 586.429 1508.86 568.432 1550.12 546.63C1583.86 528.768 1622.58 506.816 1681.12 485.979C1744.38 463.197 1810.68 449.964 1877.84 446.713" stroke="url(#paint19_linear_165_18876)" stroke-width="0.862752" stroke-miterlimit="10"/>
<path d="M26.8235 208.644C74.8681 222.661 122.105 239.312 168.319 258.521C172.769 260.444 177.262 262.045 181.628 263.578C269.862 295.937 284.428 301.003 330.959 329.839C372.41 355.344 383.683 378.84 430.082 392.323C457.417 400.031 486.123 401.565 514.122 396.813C539.244 392.849 554.309 381.101 569.169 368.701C585.488 355.124 600.418 339.696 624.472 326.217C681.285 294.456 741.351 302.335 754.813 295.111C792.261 299.701 827.371 315.766 855.327 341.102C876.644 360.259 888.681 382.104 898.382 389.973C954.753 487.978 924.946 549.082 994.099 587.961C1024.96 605.309 1064.4 606.823 1093.83 606.131C1099.64 606.003 1104.97 605.762 1109.59 605.562C1170.94 602.972 1194.6 580.968 1255.54 571.465C1306.69 563.503 1331.16 577.994 1368.79 585.573C1382.88 587.891 1397.1 589.347 1411.37 589.932C1475.32 594.491 1506.71 574.841 1547.86 551.391C1581.68 532.177 1620.22 508.994 1678.96 488.067C1742.73 465.08 1809.82 452.655 1877.59 451.283" stroke="url(#paint20_linear_165_18876)" stroke-width="0.862752" stroke-miterlimit="10"/>
<path d="M25.0811 206.748C79.7849 222.605 128.812 238.53 165.929 252.863C170.448 254.627 174.949 256.003 179.286 257.437C268.815 286.745 284.257 289.712 329.67 317.285C371.982 343.077 382.303 367.058 429.211 380.783C456.694 388.579 485.589 390.02 513.711 384.998C539.134 380.722 554.048 368.646 568.732 355.757C584.677 341.781 599.427 325.927 623.874 312.268C681.965 279.905 743.936 289.621 756.215 284.034C794.644 290.113 830.115 308.34 857.43 336.046C878.712 357.233 892.065 379.283 899.717 389.567C970.677 485.223 920.37 561.504 988.608 602.674C1019.45 621.311 1059.45 622.779 1088.76 621.922C1094.63 621.764 1099.96 621.459 1104.61 621.227C1166.72 618.115 1189.35 594.271 1251.24 583.477C1303.36 574.355 1327.47 588.898 1365.51 596.039C1379.69 598.63 1394.08 599.878 1408.49 599.767C1472.63 599.721 1504.69 581.255 1545.77 556.222C1579.6 535.59 1617.89 511.205 1676.96 489.967C1741.27 466.789 1809.18 455.166 1877.54 455.634" stroke="url(#paint21_linear_165_18876)" stroke-width="0.862752" stroke-miterlimit="10"/>
<path d="M23.2424 204.849C78.5723 220.307 127.323 234.837 163.475 247.171C168.034 248.742 172.54 249.957 176.882 251.231C267.771 277.488 284.024 278.387 328.434 305.088C371.514 331.035 380.722 355.558 428.235 369.498C455.887 377.389 484.996 378.739 513.26 373.44C538.952 368.818 553.684 356.414 568.19 343.035C583.826 328.661 598.236 312.377 623.205 298.542C682.543 265.544 746.225 277.122 757.583 273.021C801.622 280.943 835.635 305.168 859.461 331.245C880.641 354.524 893.743 378.275 900.949 389.382C969.176 494.426 915.723 574.149 983.013 617.641C1013.85 637.536 1054.4 638.957 1083.58 637.935C1089.52 637.715 1094.92 637.412 1099.54 637.147C1162.5 633.483 1184.13 607.735 1246.89 595.68C1299.96 585.43 1323.71 600.057 1362.12 606.76C1376.45 609.193 1390.99 610.208 1405.52 609.792C1469.73 608.491 1502.59 587.924 1543.6 561.244C1577.45 539.226 1615.55 513.642 1674.89 492.187C1720.88 475.573 1787.5 458.102 1877.42 460.273" stroke="url(#paint22_linear_165_18876)" stroke-width="0.862752" stroke-miterlimit="10"/>
<path d="M21.4355 202.95C77.3559 218.106 125.836 231.079 161.053 241.511C165.651 242.858 170.162 243.912 174.505 245.186C266.567 268.162 283.824 267.03 327.233 292.795C370.642 318.56 379.177 343.899 427.328 358.053C455.123 366.068 484.429 367.336 512.813 361.753C538.775 356.753 553.387 344.087 567.715 330.25C583.009 315.511 597.337 298.772 622.57 284.752C683.18 251.313 748.741 264.567 758.952 261.975C804.008 271.286 837.963 298.217 861.527 326.348C882.58 351.494 895.298 377.102 902.22 388.973C967.367 503.201 911.05 586.6 977.49 632.353C1008.28 653.568 1049.35 654.91 1078.47 653.725C1084.45 653.473 1089.88 653.107 1094.63 652.814C1158.42 648.501 1179.04 621.074 1242.69 607.663C1296.72 596.284 1320.16 610.998 1358.93 617.261C1373.41 619.546 1388.09 620.34 1402.74 619.63C1467.02 617.042 1500.64 594.371 1541.6 566.078C1575.46 542.674 1613.38 515.891 1672.98 494.219C1719.04 477.478 1786.26 460.382 1877.46 464.821" stroke="url(#paint23_linear_165_18876)" stroke-width="0.862752" stroke-miterlimit="10"/>
<path d="M19.6611 201.053C76.142 215.841 124.35 227.321 158.629 235.884C163.266 237.039 167.782 237.964 172.136 238.884C265.429 258.805 283.623 255.674 326.031 280.534C370.653 306.662 377.6 332.238 426.388 346.639C454.338 354.783 483.856 355.959 512.366 350.065C538.6 344.656 553.091 331.728 567.24 317.466C582.193 302.296 596.31 285.163 621.969 270.932C683.797 236.727 751.899 247.293 760.323 250.896C803.813 269.409 840.262 291.2 863.594 321.452C884.484 348.559 897.014 375.901 903.513 388.855C965.332 511.999 906.334 599.372 971.957 647.386C1002.71 669.89 1044.32 671.122 1073.32 669.803C1079.4 669.523 1084.83 669.124 1089.48 668.796C1154.13 664.06 1173.68 634.663 1238.25 619.928C1293.22 607.388 1316.3 622.218 1355.47 628.044C1370.11 630.177 1384.93 630.748 1399.69 629.749C1464.05 625.906 1498.44 601.101 1539.3 571.192C1573.21 546.532 1610.94 518.389 1670.78 496.499C1716.87 479.631 1784.75 462.976 1877.2 469.585" stroke="url(#paint24_linear_165_18876)" stroke-width="0.862752" stroke-miterlimit="10"/>
<path d="M17.8547 199.155C74.9229 213.737 122.835 223.466 156.21 230.129C160.887 231.059 165.407 231.855 169.799 232.615C264.294 249.384 283.455 244.319 324.831 268.21C370.381 294.562 375.961 320.543 425.484 335.098C453.595 343.34 483.319 344.423 511.955 338.251C538.398 332.397 552.799 319.272 566.735 304.616C581.382 288.984 595.284 271.49 621.335 257.111C684.442 222.304 753.802 238.587 761.694 239.786C809.814 247.168 842.529 284.15 865.533 316.519C881.069 339.083 894.182 363.223 904.653 388.539C963.117 520.373 901.496 611.946 966.43 662.227C997.104 686.018 1039.3 687.237 1068.21 685.722C1074.32 685.41 1079.81 684.949 1084.37 684.586C1149.82 679.199 1168.37 647.995 1233.88 632.035C1289.76 618.299 1312.54 633.346 1352.09 638.668C1366.88 640.647 1381.85 640.986 1396.71 639.678C1461.18 634.58 1496.26 607.541 1537.1 576.117C1571 549.876 1608.54 520.727 1668.67 498.654C1714.84 481.659 1783.29 465.377 1877.05 474.19" stroke="url(#paint25_linear_165_18876)" stroke-width="0.862752" stroke-miterlimit="10"/>
<path d="M16.0481 197.256C73.6177 211.307 121.289 219.545 153.789 224.437C261.331 240.612 281.419 231.933 323.631 255.917C369.828 282.194 374.512 308.919 424.541 323.781C452.806 332.151 482.742 333.152 511.504 326.692C566.045 313.686 568.93 271.801 620.702 243.289C685.055 207.847 756.229 226.77 763.065 228.708C854.168 254.328 893.63 356.603 906.049 388.263C961.104 528.496 896.851 624.527 960.871 677.067C998.028 707.555 1053.13 702.725 1079.39 700.38C1145.66 694.537 1163.21 661.462 1229.6 644.144C1304.42 624.594 1319.69 656.833 1393.86 649.642C1512.2 638.029 1534.08 549.866 1666.47 500.773C1712.67 483.65 1781.76 467.776 1876.8 478.793" stroke="url(#paint26_linear_165_18876)" stroke-width="0.862752" stroke-miterlimit="10"/>
<path d="M17.6528 201.34C74.1918 215.356 121.039 224.147 153.532 229.233C258.184 246.02 278.994 237.946 320.946 261.953C366.281 287.976 371.571 313.948 420.341 328.864C448.011 337.174 477.304 338.531 505.624 332.815C559.382 322.007 562.813 281.172 613.772 253.794C676.725 219.724 745.792 237.093 753.799 238.683C828.726 253.412 867.79 329.041 886.916 369.34C890.833 377.565 893.627 384.623 895.907 389.729C952.723 522.637 891.787 614.942 954.935 664.647C992.637 694.252 1048.21 688.986 1075.56 686.838C1100.62 684.933 1125.08 678.196 1147.58 667C1170.5 656.45 1192.03 644.402 1227 637.092C1237.71 634.872 1247.23 633.771 1255.78 632.832C1307.56 627.117 1326.82 646.108 1389.28 637.139C1413.45 633.726 1436.86 626.234 1458.51 614.984C1517.28 584.707 1555.29 527.94 1646.02 488.609C1651.34 486.294 1656.9 484.051 1662.69 481.88C1709.32 464.288 1779.47 447.58 1875.97 458.129" stroke="url(#paint27_linear_165_18876)" stroke-width="0.862752" stroke-miterlimit="10"/>
<path d="M19.2568 205.425C74.6363 219.402 120.797 228.46 153.308 233.997C255.006 251.363 276.438 243.955 318.26 268.022C362.775 293.501 368.619 319.266 416.012 333.911C443.11 342.181 471.781 343.915 499.678 338.968C552.562 330.194 556.689 290.705 606.811 264.266C668.389 231.794 735.751 245.173 744.469 248.657C813.332 275.951 856.666 333.827 876.481 371.861C880.51 379.605 883.25 386.372 885.509 391.155C943.983 516.895 886.597 605.257 948.805 652.222C986.86 680.903 1043.06 675.239 1071.5 673.257C1096.75 671.516 1121.51 665.417 1144.69 655.231C1167.93 645.788 1189.72 635.458 1224.2 630.067C1234.93 628.362 1244.49 627.908 1253.04 626.969C1304.66 621.248 1323.18 636.346 1384.48 624.597C1408.41 619.92 1431.45 611.508 1452.77 599.669C1509.37 569.32 1549.26 510.585 1641.84 469.897C1647.24 467.563 1652.86 465.236 1658.71 462.981C1705.75 444.919 1776.95 427.376 1874.96 437.427" stroke="url(#paint28_linear_165_18876)" stroke-width="0.862752" stroke-miterlimit="10"/>
<path d="M20.8616 209.509C75.0826 223.415 120.52 232.9 152.982 238.92C251.762 256.768 273.878 250.124 315.506 274.185C359.165 299.248 365.605 324.549 411.84 339.091C438.352 347.278 466.381 349.319 493.799 345.059C545.618 338.248 550.603 300.11 599.883 274.739C660.089 243.737 725.383 254.37 735.206 258.568C789.807 282.602 835.556 323.063 866.081 374.318C870.223 381.582 872.94 388.058 875.144 392.549C935.221 510.862 881.438 595.636 942.608 639.859C981.145 667.653 1037.87 661.523 1067.4 659.77C1092.86 658.144 1117.91 652.667 1141.72 643.524C1165.35 635.19 1187.43 626.611 1221.34 623.071C1232.15 621.949 1241.72 622.108 1250.26 621.169C1301.82 615.414 1319.44 626.708 1379.55 612.115C1403.2 606.142 1425.88 596.826 1446.89 584.447C1501.35 553.8 1543.26 493.424 1637.5 451.244C1642.93 448.846 1648.62 446.468 1654.57 444.109C1702.01 425.609 1774.3 407.231 1873.78 416.816" stroke="url(#paint29_linear_165_18876)" stroke-width="0.862752" stroke-miterlimit="10"/>
<path d="M22.467 213.561C75.5275 227.46 120.274 237.341 152.789 243.718C248.651 262.048 271.483 256.17 312.788 280.252C355.556 304.932 362.724 329.709 407.543 344.171C433.492 352.377 460.917 354.835 487.913 351.375C538.921 346.634 544.509 309.74 592.98 285.407C651.824 255.616 714.046 270.338 725.939 268.576C793.599 284.609 834.525 343.146 855.709 376.873C859.965 383.625 862.629 389.776 865.002 394.015C926.743 505.001 876.57 585.962 936.674 627.375C975.756 654.285 1032.92 647.718 1063.57 646.132C1089.25 644.634 1114.61 639.781 1139.02 631.698C1163.06 624.473 1185.34 617.674 1218.78 615.956C1229.63 615.384 1239.21 616.188 1247.82 615.251C1299.31 609.494 1316.03 616.857 1375.13 599.553C1400.17 592.202 1420.89 581.158 1441.54 569.081C1493.9 538.3 1537.65 475.922 1633.71 432.48C1639.17 430.019 1644.92 427.578 1650.98 425.158C1698.85 406.157 1772.21 386.945 1873.15 396.062" stroke="url(#paint30_linear_165_18876)" stroke-width="0.862752" stroke-miterlimit="10"/>
<path d="M24.0398 217.644C75.8452 231.469 119.998 241.749 152.668 248.324C245.548 267.103 268.929 262.147 310.239 286.1C352.115 310.459 359.785 334.673 403.479 349.033C428.819 357.214 455.587 360.021 482.073 357.274C532.059 354.175 538.461 318.953 586.091 295.687C643.521 267.655 703.495 281.173 716.74 278.489C782.414 293.198 823.44 347.773 845.374 379.332C849.742 385.605 852.384 391.465 854.831 395.416C918.206 499.008 871.738 576.191 930.708 614.891C970.336 640.916 1027.97 633.881 1059.68 632.524C1091.97 631.154 1114.9 625.247 1136.29 619.901C1160.74 613.788 1183.63 604.493 1216.14 608.838C1225.75 610.201 1235.5 610.364 1245.15 609.325C1296.61 603.567 1312.35 607.157 1370.42 586.95C1394.73 578.509 1415.12 566.456 1436.03 553.677C1486.3 522.858 1531.88 458.575 1629.73 413.678C1635.25 411.154 1641.08 408.641 1647.2 406.137C1695.48 386.698 1769.89 366.65 1872.33 375.27" stroke="url(#paint31_linear_165_18876)" stroke-width="0.862752" stroke-miterlimit="10"/>
<path d="M25.6428 221.76C76.4175 235.551 119.751 246.223 152.28 253.148C242.343 272.284 266.437 268.19 307.552 292.201C348.666 316.212 356.871 339.831 399.244 354.179C436.165 366.668 467.327 365.292 476.318 363.498C524.267 353.817 532.468 328.458 579.288 306.261C635.315 279.698 693.1 292.111 707.601 288.534C771.254 301.949 812.353 352.432 835.131 381.891C839.58 387.683 842.199 393.252 844.687 396.946C909.696 493.145 867.034 566.458 924.865 602.572C965.102 627.714 1023.1 620.208 1055.93 619.05C1088.77 617.892 1111.93 612.605 1133.68 608.207C1158.52 603.202 1182.13 595.254 1213.64 601.887C1223.14 603.976 1232.92 604.532 1242.6 603.533C1294 597.773 1308.8 597.591 1365.81 574.511C1389.41 564.982 1409.39 551.883 1430.34 538.526C1478.54 507.896 1526 441.45 1625.61 395.097C1631.18 392.51 1637.07 389.934 1643.28 387.369C1691.99 367.461 1767.47 346.578 1871.38 354.699" stroke="url(#paint32_linear_165_18876)" stroke-width="0.862752" stroke-miterlimit="10"/>
<path d="M27.2507 225.748C76.8627 239.596 119.473 250.696 152.026 257.847C239.177 277.273 263.949 274.136 304.87 298.141C345.031 321.733 353.928 344.924 395.045 359.197C430.936 371.652 461.193 371.278 470.311 369.584C517.296 360.774 526.188 337.856 572.231 316.73C626.855 291.603 682.322 302.971 698.211 298.376C759.877 310.468 800.959 356.629 824.604 384.28C828.08 388.766 831.325 393.427 834.326 398.244C900.904 487.047 862.145 556.46 918.643 590.014C959.524 614.243 1017.9 606.234 1051.81 605.337C1084.44 604.43 1108.56 599.724 1130.7 596.305C1155.95 592.411 1180.28 586.035 1210.75 594.696C1220.18 597.534 1230.07 598.5 1239.87 597.541C1291.23 591.748 1305.07 587.858 1361.04 561.84C1383.97 551.226 1403.47 537.143 1424.6 523.083C1470.77 492.385 1520.07 424.066 1621.44 376.256C1627.05 373.606 1633.01 370.968 1639.31 368.341C1688.36 347.961 1764.95 326.245 1870.36 333.9" stroke="url(#paint33_linear_165_18876)" stroke-width="0.862752" stroke-miterlimit="10"/>
<path d="M28.8569 229.768C77.3116 243.513 119.202 254.911 151.803 262.579C236.008 282.358 261.458 280.147 302.347 304.15C341.65 327.359 351.146 349.99 390.977 364.156C426.03 376.582 455.223 377.204 464.595 375.616C510.644 367.774 520.361 347.205 565.466 327.112C618.687 303.453 672.03 313.751 689.107 308.325C748.754 319.092 789.744 361.252 814.398 386.679C817.92 390.805 821.209 395.124 824.251 399.616C892.465 480.993 857.611 546.442 912.773 577.501C954.296 600.848 1013.01 592.399 1048.01 591.7C1080.93 590.996 1105.57 586.888 1128.06 584.448C1154.79 581.68 1181.78 582.724 1208.21 587.55C1219.5 589.379 1228.94 592.532 1237.38 591.751C1288.69 585.923 1301.55 578.389 1356.49 549.403C1378.62 537.73 1397.79 522.573 1419.15 507.875C1463.34 477.368 1514.39 406.883 1617.64 357.621C1623.28 354.94 1629.34 352.208 1635.75 349.489C1685.26 328.575 1762.95 306.09 1869.73 313.275" stroke="url(#paint34_linear_165_18876)" stroke-width="0.862752" stroke-miterlimit="10"/>
<path d="M30.5723 235.371C77.8685 249.045 119.067 260.903 151.658 268.862C232.823 288.893 258.952 287.608 299.451 311.695C337.928 334.522 347.99 356.623 386.567 370.715C420.46 383.102 448.846 384.697 458.471 383.246C503.647 376.471 513.967 358.115 558.359 339.094C610.144 316.903 661.298 326.128 679.631 319.809C737.354 329.254 778.004 367.146 803.782 390.773C807.35 394.534 810.695 398.5 813.8 402.652C883.391 476.594 852.765 538.057 906.527 566.651C948.757 589.12 1007.74 580.228 1043.87 579.728C1077 579.257 1102.2 575.748 1125.05 574.287C1151.09 572.612 1175.21 575.579 1205.4 582.103C1216.83 584.582 1226.22 588.282 1234.63 587.338C1285.87 581.508 1297.79 570.331 1351.71 538.312C1373.09 525.583 1391.85 509.412 1413.39 494.011C1455.64 463.762 1508.44 391.11 1613.32 340.355C1619.02 337.579 1625.11 334.816 1631.62 332.003C1681.54 310.717 1760.19 287.329 1868.57 294.019" stroke="url(#paint35_linear_165_18876)" stroke-width="0.862752" stroke-miterlimit="10"/>
<path d="M31.6837 249.37C77.8205 263.005 118.299 275.162 150.907 283.572C229.324 303.834 256.126 303.635 296.437 327.555C334.057 349.998 344.716 371.603 382.038 385.589C414.901 397.942 442.352 400.505 452.263 399.192C496.562 393.549 507.519 377.343 551.102 359.391C601.457 338.505 650.415 346.851 670.037 339.576C725.671 347.886 762.785 386.402 793.083 403.119C797.027 407.636 800.451 411.298 803.202 413.905C874.268 480.384 847.869 537.926 900.165 564.052C943.136 585.578 1002.39 576.244 1039.61 575.974C1072.96 575.736 1098.72 572.826 1121.92 572.281C1148.38 571.715 1172.88 576.823 1202.28 584.804C1213.85 587.932 1223.18 592.178 1231.57 591.201C1282.77 585.37 1293.71 570.711 1346.58 535.529C1367.25 521.808 1385.6 504.591 1407.32 488.455C1447.66 458.497 1502.18 383.614 1608.82 331.401C1614.56 328.606 1620.73 325.76 1627.32 322.863C1677.67 301.269 1757.48 277.049 1867.22 283.398" stroke="url(#paint36_linear_165_18876)" stroke-width="0.862752" stroke-miterlimit="10"/>
<path d="M32.9059 261.985C77.9798 275.585 117.738 288.072 150.365 296.871C225.906 317.327 253.509 318.25 293.461 342.287C330.224 364.315 341.48 385.424 377.515 399.334C409.348 411.621 435.868 415.023 446.093 413.979C489.546 409.533 501.109 395.442 544.011 378.564C593.024 359.246 639.701 366.386 660.61 358.219C714.23 365.044 751.071 400.165 782.52 414.276C785.751 417.721 789.184 420.969 792.803 424.003C865.246 483.08 843.18 536.382 893.971 560.298C937.715 580.882 997.178 571.104 1035.48 571.096C1069.08 571.06 1095.41 568.749 1118.93 569.246C1145.8 569.791 1170.71 577.105 1199.42 586.482C1211.09 590.29 1220.41 595.052 1228.8 593.914C1279.91 588.047 1289.94 569.778 1341.74 531.562C1361.58 516.846 1379.64 498.62 1401.45 481.745C1439.88 452.142 1496.08 374.962 1604.48 321.261C1610.26 318.23 1616.51 315.472 1623.18 312.536C1673.94 290.278 1754.71 265.348 1866.05 270.977" stroke="url(#paint37_linear_165_18876)" stroke-width="0.862752" stroke-miterlimit="10"/>
<path d="M34.2888 274.607C78.171 288.167 117.241 300.985 149.821 310.234C222.489 330.787 250.571 332.791 290.49 356.859C326.396 378.503 338.249 399.116 373.03 412.92C403.897 425.174 429.503 426.966 439.927 428.637C482.099 435.465 494.705 413.381 536.667 397.6C584.177 379.844 628.732 385.817 650.93 376.725C702.563 382.226 739.07 413.822 771.832 425.333C775.106 428.452 778.585 431.347 782.247 434C856.035 485.642 838.366 534.738 887.78 556.415C932.266 576.025 991.968 565.867 1031.4 566.058C1065.25 566.256 1092.1 564.575 1115.97 566.019C1143.26 567.674 1168.51 577.257 1196.56 588.063C1208.37 592.553 1217.61 597.796 1225.99 596.851C1277.07 590.951 1286.18 569.169 1336.87 527.82C1356.13 512.117 1373.67 492.842 1395.73 475.234C1432.18 446.016 1490.17 366.51 1600.33 311.191C1606.17 308.291 1612.47 305.277 1619.24 302.15C1670.4 279.422 1752.26 253.53 1865.07 258.789" stroke="url(#paint38_linear_165_18876)" stroke-width="0.862752" stroke-miterlimit="10"/>
<path d="M35.6066 287.258C78.325 300.908 116.648 313.895 149.278 323.564C219.073 344.215 247.794 347.369 287.519 371.462C322.567 392.691 335.022 412.68 368.506 426.698C398.374 438.918 423.086 441.422 433.722 443.487C474.798 451.311 488.262 431.512 529.446 416.801C575.527 400.319 617.919 405.414 641.373 395.397C690.986 399.605 727.355 427.617 761.042 436.547C764.359 439.348 767.885 441.891 771.589 444.155C846.656 488.391 833.578 533.288 881.198 552.712C926.589 571.288 986.4 560.748 1026.88 561.2C1060.98 561.599 1088.4 560.55 1112.63 562.973C1140.33 565.738 1165.92 577.654 1193.31 589.631C1205.23 594.866 1214.45 600.592 1222.8 599.614C1273.82 593.712 1282.08 568.451 1331.74 523.941C1350.29 507.247 1367.42 486.958 1389.64 468.581C1424.39 439.79 1483.88 357.916 1595.79 301.366C1601.68 298.36 1608.04 295.349 1614.89 292.332C1666.49 269.167 1749.38 242.438 1863.69 247.231" stroke="url(#paint39_linear_165_18876)" stroke-width="0.862752" stroke-miterlimit="10"/>
<path d="M36.9258 299.877C78.3934 313.324 116.088 326.774 148.736 336.895C215.756 357.582 245.016 361.979 284.549 386.034C318.772 406.88 331.785 426.533 364.021 440.284C392.859 452.47 416.676 455.685 427.557 458.145C467.498 467.124 481.859 449.419 522.233 435.809C566.879 420.762 607.081 424.816 631.824 413.876C679.449 416.759 715.388 441.242 750.387 447.573C753.756 450.043 757.329 452.223 761.067 454.089C837.217 491.041 828.902 531.39 874.88 548.793C920.859 566.196 981.06 555.571 1022.67 556.158C1056.99 556.758 1084.96 556.308 1109.61 559.712C1137.69 563.587 1163.63 577.642 1190.39 591.113C1202.41 597.094 1211.62 603.238 1219.94 602.291C1270.89 596.355 1278.33 567.681 1326.72 519.936C1344.63 502.285 1361.33 480.983 1383.71 461.805C1416.64 433.534 1477.76 349.231 1591.4 291.062C1597.3 288.035 1603.76 285.027 1610.7 281.745C1662.64 257.978 1746.62 230.416 1862.39 234.871" stroke="url(#paint40_linear_165_18876)" stroke-width="0.862752" stroke-miterlimit="10"/>
<path d="M38.2454 312.464C78.6501 325.876 115.561 339.622 148.227 350.163C212.28 370.879 242.241 376.492 281.579 400.573C314.944 421.036 328.62 440.163 359.509 453.707C387.38 465.861 410.303 469.788 421.397 472.642C460.24 482.616 475.427 467.196 515.056 454.657C558.236 441.012 596.246 444.09 622.213 432.223C667.82 433.75 703.458 454.708 739.64 458.434C743.089 460.575 746.717 462.412 750.484 463.924C828.036 493.668 824.261 529.397 868.564 544.809C915.706 561.187 975.73 550.073 1018.45 551.051C1052.99 551.82 1081.52 552.001 1106.46 556.383C1134.96 561.367 1161.17 577.915 1187.35 592.495C1199.47 599.349 1208.64 605.814 1216.95 604.835C1267.87 598.93 1274.49 566.811 1321.7 515.834C1338.93 497.226 1355.31 475.042 1377.71 454.93C1408.89 427.18 1471.57 340.447 1586.97 280.789C1592.94 277.7 1599.44 274.522 1606.48 271.253C1658.87 247.212 1743.92 218.782 1861.19 222.61" stroke="url(#paint41_linear_165_18876)" stroke-width="0.862752" stroke-miterlimit="10"/>
<path d="M39.5624 325.148C78.8076 338.521 115 352.533 147.682 363.558C208.899 384.243 239.494 391.136 278.604 415.273C311.114 435.288 325.322 453.949 355.02 467.389C374.476 475.78 394.62 482.474 415.228 487.396C452.975 498.333 468.989 485.198 507.839 473.762C549.554 461.519 585.57 463.466 612.724 450.8C656.31 451.066 691.681 468.436 729.046 469.59C732.561 471.391 736.236 472.864 740.023 473.988C818.527 496.478 819.681 527.502 862.245 540.954C910.329 556.138 970.398 545.606 1014.2 546.04C1049.02 546.399 1078.05 547.855 1103.38 553.184C1132.19 559.275 1158.77 578.221 1184.36 594.007C1196.56 601.508 1205.74 608.522 1214.03 607.542C1264.88 601.603 1270.75 566.105 1316.74 511.863C1333.29 492.329 1349.22 469.067 1371.81 448.187C1401.19 420.99 1465.44 331.794 1582.6 270.647C1588.6 267.624 1595.17 264.265 1602.27 260.923C1655.11 236.349 1741.21 207.116 1859.95 210.477" stroke="url(#paint42_linear_165_18876)" stroke-width="0.862752" stroke-miterlimit="10"/>
<path d="M40.8796 337.799C79.1264 351.139 114.473 365.38 147.141 376.824C205.523 397.415 236.719 405.617 275.668 429.781C307.256 449.379 322.092 467.577 350.505 480.91C369.451 489.491 389.026 496.614 409.057 502.216C445.774 514.053 462.548 503.232 500.618 492.963C540.869 482.058 574.592 483.154 603.167 469.472C644.767 468.382 679.837 482.227 718.353 480.776C721.946 482.225 725.665 483.343 729.462 484.114C809.106 499.516 815.131 525.674 855.92 537.228C904.983 551.122 965.057 540.429 1009.98 541.159C1045.04 541.752 1074.61 543.806 1100.29 550.114C1129.58 557.318 1156.31 578.655 1181.41 595.649C1193.61 603.925 1202.84 611.36 1211.09 610.378C1261.92 604.406 1267.02 565.529 1311.74 508.02C1327.67 487.53 1343.22 463.32 1365.87 441.604C1393.59 414.996 1459.34 323.303 1578.29 260.637C1584.33 257.453 1590.99 254.129 1598.2 250.695C1651.47 225.683 1738.69 195.617 1858.84 198.478" stroke="url(#paint43_linear_165_18876)" stroke-width="0.862752" stroke-miterlimit="10"/>
<path d="M42.1652 350.449C79.1247 363.713 113.946 378.228 146.595 390.251C202.045 410.776 233.971 420.292 272.693 444.482C303.488 463.698 318.853 481.495 346.015 494.624C364.457 503.248 383.447 510.648 402.862 516.776C438.583 529.482 456.116 521.041 493.31 511.871C532.128 502.369 563.659 502.489 593.524 487.85C633.103 485.467 667.873 495.756 707.606 491.669C711.273 492.778 715.037 493.541 718.847 493.947C799.629 502.326 810.435 523.388 849.51 533.176C899.552 545.749 959.631 534.927 1005.67 536.017C1040.95 536.811 1071.08 539.463 1097.11 546.751C1126.82 555.065 1153.76 578.795 1178.33 596.997C1190.57 606.08 1199.82 613.838 1208.07 612.921C1258.83 606.946 1263.28 564.662 1306.68 503.885C1321.97 482.471 1337.26 457.349 1359.85 434.728C1386 408.744 1453.12 314.679 1573.87 250.364C1579.94 247.117 1586.66 243.731 1593.97 240.235C1647.64 214.786 1735.86 183.85 1857.57 186.344" stroke="url(#paint44_linear_165_18876)" stroke-width="0.862752" stroke-miterlimit="10"/>
<path d="M43.4832 363.101C79.2821 376.358 113.485 391.045 146.05 403.646C198.829 424.017 231.192 434.935 269.72 459.117C299.691 477.919 315.622 495.187 341.496 508.273C359.437 517.062 377.867 524.816 396.694 531.498C431.419 545.074 449.647 538.978 486.191 530.947C523.545 522.782 552.915 521.959 584.067 506.429C621.659 502.721 656.129 509.453 697.043 502.826C700.806 503.457 704.605 503.854 708.418 504.013C790.105 510.391 805.991 521.305 843.285 529.389C894.312 540.447 954.443 529.046 1001.52 531.073C1036.93 532.614 1067.73 535.353 1094.12 543.62C1124.24 553.044 1151.33 579.197 1175.44 598.577C1187.72 608.467 1197.02 616.646 1205.24 615.696C1255.97 609.72 1259.75 564.093 1301.78 500.045C1316.46 477.675 1331.36 451.638 1354.04 428.053C1378.43 402.687 1447.15 305.967 1569.5 240.287C1575.65 236.967 1582.42 233.529 1589.8 229.971C1643.87 203.987 1733.19 172.25 1856.36 174.18" stroke="url(#paint45_linear_165_18876)" stroke-width="0.862752" stroke-miterlimit="10"/>
<path d="M44.8023 375.72C79.4428 388.906 112.962 403.796 145.508 416.945C195.521 437.126 228.417 449.448 266.75 473.689C295.864 492.075 312.359 508.878 337.011 521.859C359.823 533.907 378.288 540.974 390.527 546.22C424.289 560.603 443.212 556.883 478.974 550.051C511.327 543.754 543.24 535.377 574.515 524.971C608.797 514.189 644.559 503.52 686.354 513.915C690.158 514.575 694.043 514.618 697.861 514.042C781.039 508.636 801.421 519.12 836.964 525.566C889.014 534.982 949.106 523.773 997.298 526.096C1033.06 527.809 1064.29 531.208 1091.04 540.422C1121.54 551.115 1148.8 579.564 1172.45 600.121C1184.74 610.818 1194.12 619.387 1202.35 618.404C1252.98 612.393 1256.16 563.392 1296.72 496.071C1310.79 472.746 1325.39 445.86 1348.01 421.338C1370.63 396.816 1441.05 297.541 1565.03 230.109C1571.2 226.801 1578.16 223.262 1585.54 219.607C1640.04 193.186 1730.39 160.613 1855.09 162.046" stroke="url(#paint46_linear_165_18876)" stroke-width="0.862752" stroke-miterlimit="10"/>
<path d="M46.1197 388.371C79.6007 401.519 112.476 416.387 144.994 430.373C192.208 450.365 225.668 464.124 263.775 488.389C292.193 506.365 309.123 522.699 332.488 535.572C354.302 547.62 372.102 555.277 384.359 560.943C417.191 576.132 436.745 574.755 471.757 569.124C506.154 563.601 529.113 555.857 564.961 543.547C597.255 532.439 631.281 531.224 675.697 525.005C679.779 524.432 683.674 524.627 687.335 524.105C771.774 511.841 796.853 516.872 830.643 521.743C883.688 529.355 943.799 518.534 993.047 521.117C1029.06 523.032 1060.85 527.062 1087.95 537.191C1118.87 548.866 1146.24 579.833 1169.47 601.601C1181.76 613.104 1191.36 622.067 1199.42 621.079C1249.99 615.066 1252.61 562.661 1291.83 491.973C1305.32 467.694 1319.66 440.025 1342.18 414.468C1363.39 390.415 1435.06 288.763 1560.76 219.842C1567 216.472 1573.9 212.866 1581.47 209.121C1636.38 182.262 1727.81 148.855 1853.95 149.788" stroke="url(#paint47_linear_165_18876)" stroke-width="0.862752" stroke-miterlimit="10"/>
<path d="M47.5993 400.996C79.9208 414.105 112.175 429.21 144.615 443.613C189.095 463.384 223.059 478.482 260.967 502.902C288.4 520.458 306.055 536.332 328.165 549.131C348.949 561.112 365.957 569.323 378.356 575.542C410.291 591.54 430.476 592.505 464.737 588.106C497.64 583.855 518.64 575.884 555.569 562.127C585.971 550.699 619.501 545.985 665.167 536.131C669.226 535.268 673.234 534.983 676.969 534.172C762.733 515.085 792.345 520.526 824.483 517.926C879.221 513.761 934.173 513.188 988.987 516.209C1025.26 518.294 1057.57 522.954 1085.12 534.13C1116.45 546.915 1143.9 580.303 1166.64 603.248C1178.9 615.556 1188.49 624.873 1196.65 623.921C1247.18 617.874 1249.21 562.096 1287.02 488.298C1299.92 463.096 1314.06 434.647 1336.43 408.021C1356.07 384.657 1429.08 280.374 1556.55 209.996C1562.82 206.562 1569.68 202.89 1577.45 199.088C1632.8 171.727 1725.26 137.484 1852.9 137.983" stroke="url(#paint48_linear_165_18876)" stroke-width="0.862752" stroke-miterlimit="10"/>
<path d="M48.8746 410.099C80.0367 423.169 111.676 438.351 144.157 453.432C185.939 472.919 220.332 489.644 258.211 513.966C284.824 530.978 303.036 546.549 323.894 559.209C343.646 571.188 359.894 579.954 372.375 586.627C403.509 603.404 424.229 606.709 457.74 603.542C489.181 600.564 508.313 592.531 546.239 576.905C574.815 565.125 607.975 557.045 654.733 543.456C658.803 542.27 662.826 541.534 666.668 540.405C753.819 514.561 788.083 512.999 818.385 510.338C873.78 505.396 929.458 504.425 984.992 507.434C1021.48 509.719 1054.35 515.011 1082.13 527.161C1113.91 541.123 1141.41 576.834 1163.89 600.834C1176.09 613.946 1185.69 623.683 1193.95 622.702C1244.42 616.62 1245.95 557.472 1282.26 480.368C1294.58 454.179 1308.61 425.017 1330.73 397.318C1348.87 374.613 1423.19 267.73 1552.41 195.863C1558.72 192.366 1565.77 188.637 1573.51 184.768C1629.26 156.938 1722.81 121.86 1851.92 121.861" stroke="url(#paint49_linear_165_18876)" stroke-width="0.862752" stroke-miterlimit="10"/>
<path d="M50.3551 415.017C80.3577 428.049 111.45 443.212 143.648 459.025C182.731 478.228 217.721 496.392 255.146 520.795C280.93 537.49 299.677 552.53 319.282 565.052C338.034 577.03 353.524 586.286 366.112 593.608C396.447 611.164 417.701 616.776 450.429 614.873C480.41 613.136 497.795 605.27 536.592 587.706C563.37 575.705 596.258 564.166 643.948 546.803C648.061 545.328 652.131 544.143 656.016 542.693C744.685 510.031 783.346 501.362 811.97 498.741C867.697 493.674 928.107 491.246 980.646 494.713C1017.39 497.136 1050.79 503.091 1078.95 516.221C1111.11 531.227 1138.66 569.39 1160.8 594.766C1172.97 608.715 1182.79 618.782 1190.92 617.796C1241.36 611.746 1242.36 549.162 1277.19 468.816C1288.94 441.673 1302.93 411.832 1324.69 382.993C1341.36 360.981 1416.96 251.497 1547.94 178.141C1554.31 174.614 1561.41 170.789 1569.25 166.827C1625.43 138.56 1720.01 102.646 1850.62 102.084" stroke="url(#paint50_linear_165_18876)" stroke-width="0.862752" stroke-miterlimit="10"/>
<path d="M52.003 419.716C80.8793 432.677 111.456 447.823 143.467 464.436C180.901 483.528 217.307 504.572 252.535 527.479C277.495 543.792 296.643 558.394 315.157 570.75C332.843 582.789 347.608 592.505 360.307 600.378C389.872 618.747 411.631 626.633 443.574 626.026C472.128 625.498 487.856 617.996 527.401 598.329C552.518 585.853 585.16 571.082 633.652 549.973C637.775 548.176 641.893 546.541 645.853 544.803C736.007 505.323 778.833 487.83 806.012 486.966C862.787 485.255 923.133 477.989 976.789 481.816C1013.78 484.376 1047.71 491.057 1076.22 505.135C1108.8 521.251 1136.36 561.962 1158.17 588.487C1170.25 603.24 1180.22 613.698 1188.35 612.745C1238.72 606.628 1239.13 540.638 1272.56 457.053C1284.42 425.72 1300.06 395.948 1319.12 368.394C1334.34 347.01 1411.19 234.956 1543.9 160.111C1550.31 156.52 1557.47 152.633 1565.41 148.61C1621.99 119.872 1717.66 83.1247 1849.74 82.1605" stroke="url(#paint51_linear_165_18876)" stroke-width="0.862752" stroke-miterlimit="10"/>
<path d="M53.5939 424.219C121.607 455.946 187.198 492.628 249.836 533.967C350.597 600.505 377.574 635.521 436.631 636.95C479.643 637.97 490.401 620.016 623.236 552.913C723.142 502.442 773.091 477.32 799.964 474.995C896.514 466.973 1002.11 456.578 1073.41 493.82C1124.81 520.658 1163.03 609.931 1185.7 607.207C1252.87 599.073 1230.51 478.12 1313.49 353.535C1327.31 332.781 1405.37 218.188 1539.84 141.854C1592.03 112.228 1696.46 63.5524 1848.83 61.9136" stroke="url(#paint52_linear_165_18876)" stroke-width="0.862752" stroke-miterlimit="10"/>
</g>
</g>
<defs>
<linearGradient id="paint0_linear_165_18876" x1="1880.57" y1="307.126" x2="41.1188" y2="245.559" gradientUnits="userSpaceOnUse">
<stop stop-color="#936AFF"/>
<stop offset="1" stop-color="#FFB471"/>
</linearGradient>
<linearGradient id="paint1_linear_165_18876" x1="1880.33" y1="314.33" x2="39.02" y2="252.701" gradientUnits="userSpaceOnUse">
<stop stop-color="#936AFF"/>
<stop offset="1" stop-color="#FFB471"/>
</linearGradient>
<linearGradient id="paint2_linear_165_18876" x1="1880.09" y1="321.564" x2="37.0506" y2="259.878" gradientUnits="userSpaceOnUse">
<stop stop-color="#936AFF"/>
<stop offset="1" stop-color="#FFB471"/>
</linearGradient>
<linearGradient id="paint3_linear_165_18876" x1="1879.84" y1="328.726" x2="34.7571" y2="266.971" gradientUnits="userSpaceOnUse">
<stop stop-color="#936AFF"/>
<stop offset="1" stop-color="#FFB471"/>
</linearGradient>
<linearGradient id="paint4_linear_165_18876" x1="1879.6" y1="335.934" x2="32.6259" y2="274.116" gradientUnits="userSpaceOnUse">
<stop stop-color="#936AFF"/>
<stop offset="1" stop-color="#FFB471"/>
</linearGradient>
<linearGradient id="paint5_linear_165_18876" x1="1879.23" y1="343.127" x2="30.5288" y2="281.251" gradientUnits="userSpaceOnUse">
<stop stop-color="#936AFF"/>
<stop offset="1" stop-color="#FFB471"/>
</linearGradient>
<linearGradient id="paint6_linear_165_18876" x1="1878.86" y1="350.315" x2="28.3991" y2="288.38" gradientUnits="userSpaceOnUse">
<stop stop-color="#936AFF"/>
<stop offset="1" stop-color="#FFB471"/>
</linearGradient>
<linearGradient id="paint7_linear_165_18876" x1="1878.81" y1="357.544" x2="26.2646" y2="295.54" gradientUnits="userSpaceOnUse">
<stop stop-color="#936AFF"/>
<stop offset="1" stop-color="#FFB471"/>
</linearGradient>
<linearGradient id="paint8_linear_165_18876" x1="1878.63" y1="364.7" x2="24.1668" y2="302.631" gradientUnits="userSpaceOnUse">
<stop stop-color="#936AFF"/>
<stop offset="1" stop-color="#FFB471"/>
</linearGradient>
<linearGradient id="paint9_linear_165_18876" x1="1878.42" y1="371.925" x2="22.0346" y2="309.792" gradientUnits="userSpaceOnUse">
<stop stop-color="#936AFF"/>
<stop offset="1" stop-color="#FFB471"/>
</linearGradient>
<linearGradient id="paint10_linear_165_18876" x1="1877.98" y1="379.091" x2="19.9065" y2="316.901" gradientUnits="userSpaceOnUse">
<stop stop-color="#936AFF"/>
<stop offset="1" stop-color="#FFB471"/>
</linearGradient>
<linearGradient id="paint11_linear_165_18876" x1="1877.96" y1="386.322" x2="17.8044" y2="324.062" gradientUnits="userSpaceOnUse">
<stop stop-color="#936AFF"/>
<stop offset="1" stop-color="#FFB471"/>
</linearGradient>
<linearGradient id="paint12_linear_165_18876" x1="1877.63" y1="393.499" x2="15.6745" y2="331.18" gradientUnits="userSpaceOnUse">
<stop stop-color="#936AFF"/>
<stop offset="1" stop-color="#FFB471"/>
</linearGradient>
<linearGradient id="paint13_linear_165_18876" x1="1877.42" y1="400.566" x2="13.5473" y2="338.182" gradientUnits="userSpaceOnUse">
<stop stop-color="#936AFF"/>
<stop offset="1" stop-color="#FFB471"/>
</linearGradient>
<linearGradient id="paint14_linear_165_18876" x1="1877.02" y1="407.551" x2="11.36" y2="345.107" gradientUnits="userSpaceOnUse">
<stop stop-color="#936AFF"/>
<stop offset="1" stop-color="#FFB471"/>
</linearGradient>
<linearGradient id="paint15_linear_165_18876" x1="1876.93" y1="415.095" x2="9.31322" y2="352.586" gradientUnits="userSpaceOnUse">
<stop stop-color="#936AFF"/>
<stop offset="1" stop-color="#FFB471"/>
</linearGradient>
<linearGradient id="paint16_linear_165_18876" x1="1876.7" y1="421.977" x2="7.19233" y2="359.405" gradientUnits="userSpaceOnUse">
<stop stop-color="#936AFF"/>
<stop offset="1" stop-color="#FFB471"/>
</linearGradient>
<linearGradient id="paint17_linear_165_18876" x1="1876.36" y1="429.069" x2="5.06569" y2="366.437" gradientUnits="userSpaceOnUse">
<stop stop-color="#936AFF"/>
<stop offset="1" stop-color="#FFB471"/>
</linearGradient>
<linearGradient id="paint18_linear_165_18876" x1="1876.28" y1="436.152" x2="2.96916" y2="373.452" gradientUnits="userSpaceOnUse">
<stop stop-color="#936AFF"/>
<stop offset="1" stop-color="#FFB471"/>
</linearGradient>
<linearGradient id="paint19_linear_165_18876" x1="1875.94" y1="443.314" x2="0.840679" y2="380.554" gradientUnits="userSpaceOnUse">
<stop stop-color="#936AFF"/>
<stop offset="1" stop-color="#FFB471"/>
</linearGradient>
<linearGradient id="paint20_linear_165_18876" x1="1875.61" y1="450.316" x2="-1.2832" y2="387.496" gradientUnits="userSpaceOnUse">
<stop stop-color="#936AFF"/>
<stop offset="1" stop-color="#FFB471"/>
</linearGradient>
<linearGradient id="paint21_linear_165_18876" x1="1875.47" y1="457.342" x2="-3.34476" y2="394.458" gradientUnits="userSpaceOnUse">
<stop stop-color="#936AFF"/>
<stop offset="1" stop-color="#FFB471"/>
</linearGradient>
<linearGradient id="paint22_linear_165_18876" x1="1875.26" y1="464.479" x2="-5.50666" y2="401.53" gradientUnits="userSpaceOnUse">
<stop stop-color="#936AFF"/>
<stop offset="1" stop-color="#FFB471"/>
</linearGradient>
<linearGradient id="paint23_linear_165_18876" x1="1875.22" y1="471.511" x2="-7.63468" y2="408.492" gradientUnits="userSpaceOnUse">
<stop stop-color="#936AFF"/>
<stop offset="1" stop-color="#FFB471"/>
</linearGradient>
<linearGradient id="paint24_linear_165_18876" x1="1874.88" y1="478.672" x2="-9.731" y2="415.594" gradientUnits="userSpaceOnUse">
<stop stop-color="#936AFF"/>
<stop offset="1" stop-color="#FFB471"/>
</linearGradient>
<linearGradient id="paint25_linear_165_18876" x1="1874.64" y1="485.767" x2="-11.8585" y2="422.625" gradientUnits="userSpaceOnUse">
<stop stop-color="#936AFF"/>
<stop offset="1" stop-color="#FFB471"/>
</linearGradient>
<linearGradient id="paint26_linear_165_18876" x1="1874.3" y1="492.858" x2="-13.9852" y2="429.656" gradientUnits="userSpaceOnUse">
<stop stop-color="#936AFF"/>
<stop offset="1" stop-color="#FFB471"/>
</linearGradient>
<linearGradient id="paint27_linear_165_18876" x1="1872.95" y1="488.232" x2="-12.0538" y2="425.141" gradientUnits="userSpaceOnUse">
<stop stop-color="#936AFF"/>
<stop offset="1" stop-color="#FFB471"/>
</linearGradient>
<linearGradient id="paint28_linear_165_18876" x1="1871.4" y1="483.597" x2="-10.1208" y2="420.623" gradientUnits="userSpaceOnUse">
<stop stop-color="#936AFF"/>
<stop offset="1" stop-color="#FFB471"/>
</linearGradient>
<linearGradient id="paint29_linear_165_18876" x1="1869.68" y1="478.997" x2="-8.18655" y2="416.144" gradientUnits="userSpaceOnUse">
<stop stop-color="#936AFF"/>
<stop offset="1" stop-color="#FFB471"/>
</linearGradient>
<linearGradient id="paint30_linear_165_18876" x1="1868.52" y1="474.346" x2="-6.2568" y2="411.597" gradientUnits="userSpaceOnUse">
<stop stop-color="#936AFF"/>
<stop offset="1" stop-color="#FFB471"/>
</linearGradient>
<linearGradient id="paint31_linear_165_18876" x1="1867.16" y1="469.709" x2="-4.35746" y2="407.069" gradientUnits="userSpaceOnUse">
<stop stop-color="#936AFF"/>
<stop offset="1" stop-color="#FFB471"/>
</linearGradient>
<linearGradient id="paint32_linear_165_18876" x1="1865.68" y1="465.17" x2="-2.42828" y2="402.644" gradientUnits="userSpaceOnUse">
<stop stop-color="#936AFF"/>
<stop offset="1" stop-color="#FFB471"/>
</linearGradient>
<linearGradient id="paint33_linear_165_18876" x1="1864.13" y1="460.444" x2="-0.491571" y2="398.035" gradientUnits="userSpaceOnUse">
<stop stop-color="#936AFF"/>
<stop offset="1" stop-color="#FFB471"/>
</linearGradient>
<linearGradient id="paint34_linear_165_18876" x1="1862.97" y1="455.799" x2="1.4376" y2="393.494" gradientUnits="userSpaceOnUse">
<stop stop-color="#936AFF"/>
<stop offset="1" stop-color="#FFB471"/>
</linearGradient>
<linearGradient id="paint35_linear_165_18876" x1="1861.32" y1="451.207" x2="3.53417" y2="389.027" gradientUnits="userSpaceOnUse">
<stop stop-color="#936AFF"/>
<stop offset="1" stop-color="#FFB471"/>
</linearGradient>
<linearGradient id="paint36_linear_165_18876" x1="1859.77" y1="446.409" x2="5.31013" y2="384.34" gradientUnits="userSpaceOnUse">
<stop stop-color="#936AFF"/>
<stop offset="1" stop-color="#FFB471"/>
</linearGradient>
<linearGradient id="paint37_linear_165_18876" x1="1858.36" y1="441.574" x2="7.1511" y2="379.614" gradientUnits="userSpaceOnUse">
<stop stop-color="#936AFF"/>
<stop offset="1" stop-color="#FFB471"/>
</linearGradient>
<linearGradient id="paint38_linear_165_18876" x1="1857.13" y1="436.889" x2="9.14765" y2="375.037" gradientUnits="userSpaceOnUse">
<stop stop-color="#936AFF"/>
<stop offset="1" stop-color="#FFB471"/>
</linearGradient>
<linearGradient id="paint39_linear_165_18876" x1="1855.51" y1="432.47" x2="11.0746" y2="370.737" gradientUnits="userSpaceOnUse">
<stop stop-color="#936AFF"/>
<stop offset="1" stop-color="#FFB471"/>
</linearGradient>
<linearGradient id="paint40_linear_165_18876" x1="1853.97" y1="427.585" x2="13.0168" y2="365.968" gradientUnits="userSpaceOnUse">
<stop stop-color="#936AFF"/>
<stop offset="1" stop-color="#FFB471"/>
</linearGradient>
<linearGradient id="paint41_linear_165_18876" x1="1852.52" y1="422.693" x2="14.9576" y2="361.19" gradientUnits="userSpaceOnUse">
<stop stop-color="#936AFF"/>
<stop offset="1" stop-color="#FFB471"/>
</linearGradient>
<linearGradient id="paint42_linear_165_18876" x1="1851.04" y1="417.936" x2="16.8947" y2="356.547" gradientUnits="userSpaceOnUse">
<stop stop-color="#936AFF"/>
<stop offset="1" stop-color="#FFB471"/>
</linearGradient>
<linearGradient id="paint43_linear_165_18876" x1="1849.68" y1="413.313" x2="18.8252" y2="352.034" gradientUnits="userSpaceOnUse">
<stop stop-color="#936AFF"/>
<stop offset="1" stop-color="#FFB471"/>
</linearGradient>
<linearGradient id="paint44_linear_165_18876" x1="1848.17" y1="408.471" x2="20.7327" y2="347.306" gradientUnits="userSpaceOnUse">
<stop stop-color="#936AFF"/>
<stop offset="1" stop-color="#FFB471"/>
</linearGradient>
<linearGradient id="paint45_linear_165_18876" x1="1846.72" y1="403.736" x2="22.6687" y2="342.685" gradientUnits="userSpaceOnUse">
<stop stop-color="#936AFF"/>
<stop offset="1" stop-color="#FFB471"/>
</linearGradient>
<linearGradient id="paint46_linear_165_18876" x1="1845.21" y1="398.983" x2="24.6061" y2="338.048" gradientUnits="userSpaceOnUse">
<stop stop-color="#936AFF"/>
<stop offset="1" stop-color="#FFB471"/>
</linearGradient>
<linearGradient id="paint47_linear_165_18876" x1="1843.83" y1="394.152" x2="26.5441" y2="333.327" gradientUnits="userSpaceOnUse">
<stop stop-color="#936AFF"/>
<stop offset="1" stop-color="#FFB471"/>
</linearGradient>
<linearGradient id="paint48_linear_165_18876" x1="1842.53" y1="389.628" x2="28.6338" y2="328.916" gradientUnits="userSpaceOnUse">
<stop stop-color="#936AFF"/>
<stop offset="1" stop-color="#FFB471"/>
</linearGradient>
<linearGradient id="paint49_linear_165_18876" x1="1841.19" y1="384.492" x2="30.419" y2="323.885" gradientUnits="userSpaceOnUse">
<stop stop-color="#936AFF"/>
<stop offset="1" stop-color="#FFB471"/>
</linearGradient>
<linearGradient id="paint50_linear_165_18876" x1="1839.39" y1="379.726" x2="32.2625" y2="319.241" gradientUnits="userSpaceOnUse">
<stop stop-color="#936AFF"/>
<stop offset="1" stop-color="#FFB471"/>
</linearGradient>
<linearGradient id="paint51_linear_165_18876" x1="1838" y1="375.005" x2="34.2618" y2="314.634" gradientUnits="userSpaceOnUse">
<stop stop-color="#936AFF"/>
<stop offset="1" stop-color="#FFB471"/>
</linearGradient>
<linearGradient id="paint52_linear_165_18876" x1="1836.59" y1="370.189" x2="36.2004" y2="309.93" gradientUnits="userSpaceOnUse">
<stop stop-color="#936AFF"/>
<stop offset="1" stop-color="#FFB471"/>
</linearGradient>
<clipPath id="clip0_165_18876">
<rect x="22.6238" y="0.789551" width="1869.32" height="666.858" rx="333.429" transform="rotate(1.91698 22.6238 0.789551)" fill="white"/>
</clipPath>
</defs>
</svg>
